<?xml version="1.0" encoding="utf-8"?>
<!-- Generator: Adobe Illustrator 26.0.2, SVG Export Plug-In . SVG Version: 6.00 Build 0)  -->
<svg version="1.1" id="Layer_1" xmlns="http://www.w3.org/2000/svg" xmlns:xlink="http://www.w3.org/1999/xlink" x="0px" y="0px"
	 viewBox="0 0 70.6 35" style="enable-background:new 0 0 70.6 35;" xml:space="preserve">
<style type="text/css">
	.st0{clip-path:url(#SVGID_00000049901484884374088930000013665612171460659647_);}
	.st1{fill:#E20714;}
	.st2{fill:#FFFFFF;}
	.st3{fill:#1F181A;}
	.st4{fill:#AF975D;}
</style>
<g>
	<defs>
		<rect id="SVGID_1_" width="70.6" height="35"/>
	</defs>
	<clipPath id="SVGID_00000049221929171746265910000005848021659339994543_">
		<use xlink:href="#SVGID_1_"  style="overflow:visible;"/>
	</clipPath>
	<g id="Group_701" transform="translate(0)" style="clip-path:url(#SVGID_00000049221929171746265910000005848021659339994543_);">
		<path id="Path_493" class="st1" d="M66.4,17.5c0,8.8-13.9,16-31.1,16s-31.1-7.2-31.1-16s13.9-16,31.1-16S66.4,8.6,66.4,17.5"/>
		<path id="Path_494" class="st2" d="M70.4,17.5c0,9.6-15.7,17.3-35.1,17.3S0.2,27,0.2,17.5S15.9,0.1,35.3,0.1S70.4,7.9,70.4,17.5"
			/>
		<path id="Path_495" class="st3" d="M35.3,35c-9.3,0-18.1-1.8-24.7-5C3.7,26.7,0,22.2,0,17.5S3.7,8.3,10.5,5C17.2,1.8,26,0,35.3,0
			S53.4,1.8,60,5c6.8,3.3,10.5,7.7,10.5,12.5S66.8,26.7,60,30C53.4,33.2,44.6,35,35.3,35 M35.3,34.2c17.6,0,31.9-7.5,31.9-16.7
			S52.9,0.8,35.3,0.8S3.4,8.3,3.4,17.5S17.7,34.2,35.3,34.2"/>
		<path id="Path_496" class="st3" d="M66.5,17.7c0,8.9-14,16.1-31.2,16.1S4.2,26.5,4.2,17.7s14-16.1,31.2-16.1S66.5,8.8,66.5,17.7"
			/>
		<path id="Path_497" class="st2" d="M16.1,21.3h-5.2v-9.5h4.7c1.4,0,2.9,0.7,2.9,2.4c0,0.9-0.5,1.8-1.3,2.2L17,16.5l0.1,0.1
			c0.9,0.3,1.5,1.2,1.5,2.1c0.1,1.3-0.9,2.5-2.2,2.6C16.3,21.3,16.2,21.3,16.1,21.3 M13.3,17.3v2.1h1.9c0.6,0.1,1.1-0.4,1.1-0.9
			c0,0,0-0.1,0-0.1c0-0.6-0.5-1.1-1.1-1.1c0,0,0,0-0.1,0L13.3,17.3L13.3,17.3z M13.3,13.6v2h1.9c0.5,0,1-0.5,0.9-1
			c0-0.5-0.5-0.9-1-0.9c0,0,0,0,0,0H13.3L13.3,13.6z"/>
		<path id="Path_498" class="st4" d="M15.6,11.7c1.6,0,2.9,0.9,2.9,2.5c0,0.9-0.5,1.8-1.3,2.2c0.9,0.3,1.5,1.2,1.5,2.2
			c0.1,1.4-0.9,2.6-2.3,2.7c-0.1,0-0.2,0-0.3,0h-5.3v-9.6L15.6,11.7z M13.4,15.5h1.8c0.5,0,0.9-0.5,0.9-1c0,0,0,0,0,0
			c0-0.5-0.4-0.9-0.9-0.8c0,0,0,0,0,0h-1.7L13.4,15.5 M13.4,19.4h1.8c0.5,0.1,1-0.3,1-0.8c0,0,0-0.1,0-0.1c0-0.6-0.4-1-1-1
			c0,0,0,0-0.1,0h-1.8L13.4,19.4 M15.6,11.9h-4.6v9.3h5.2c1.3,0.1,2.4-0.9,2.5-2.2c0-0.1,0-0.2,0-0.3c0-0.9-0.6-1.7-1.5-2.1
			l-0.2-0.1l0.2-0.1c0.8-0.4,1.3-1.2,1.3-2.1C18.4,12.6,17,11.9,15.6,11.9 M13.2,15.7v-2.1h1.9c0.6,0,1,0.4,1.1,1c0,0,0,0,0,0
			c0,0.6-0.4,1.1-1,1.1L13.2,15.7L13.2,15.7z M13.2,19.5v-2.3h2c0.6,0,1.2,0.5,1.2,1.1c0,0,0,0,0,0.1c0,0.6-0.5,1.1-1.1,1.1
			c0,0-0.1,0-0.1,0L13.2,19.5L13.2,19.5z"/>
		<path id="Path_499" class="st2" d="M21.3,21.3h-1.7v-1.9h0.9c0.6,0,0.9-0.3,0.9-1v-6.5h2.4v6.5C23.9,19.9,23.7,21.3,21.3,21.3"/>
		<path id="Path_500" class="st2" d="M32.6,21.3h-6.4v-9.5h6.4v1.9h-3.9v1.8h3.8v1.9h-3.8v2h4L32.6,21.3z"/>
		<path id="Path_501" class="st2" d="M41.2,21.3c-1.7,0-2.7-1.1-4-2.8L37,18.4v2.9h-2.4v-9.5h4c2.2,0,3.4,1,3.4,2.9
			c0.1,1.4-0.7,2.7-2.1,3.3l-0.1,0l0,0.1c0.4,0.8,1.2,1.3,2.1,1.3v1.9C41.7,21.3,41.5,21.3,41.2,21.3 M37,13.6v3.6h0.1
			c1.4,0.1,2.5-1,2.6-2.4c0,0,0,0,0,0c0-0.6-0.4-1.1-1-1.1c0,0-0.1,0-0.1,0L37,13.6L37,13.6z"/>
		<path id="Path_502" class="st2" d="M52,21.3h-2.9l-2.8-4.2l-0.1-0.2v4.4h-2.4v-9.5h2.4v4l0.1-0.2l2.8-3.9h2.6L48.6,16l0,0l0,0
			L52,21.3z"/>
		<path id="Path_503" class="st2" d="M59.6,21.3h-6.4v-9.5h6.4v1.9h-3.9v1.8h3.8v1.9h-3.8v2h4L59.6,21.3z"/>
		<path id="Path_504" class="st2" d="M22.4,24.2H23v1h1.2v-1h0.6v2.7h-0.6v-1.2H23v1.2h-0.6V24.2z"/>
		<path id="Path_505" class="st2" d="M26.2,24.2h1.9v0.6h-1.3v0.5H28v0.6h-1.2v0.6h1.3v0.6h-1.9V24.2z"/>
		<path id="Path_506" class="st2" d="M29.4,24.2H30v2.2h1.1v0.6h-1.7L29.4,24.2z"/>
		<path id="Path_507" class="st2" d="M34.3,26.7C34,26.9,33.6,27,33.2,27c-0.8,0-1.4-0.6-1.4-1.4c0-0.8,0.6-1.4,1.4-1.4
			c0.4,0,0.8,0.1,1.1,0.4l-0.4,0.5c-0.2-0.2-0.4-0.3-0.7-0.3c-0.5,0-0.9,0.4-0.9,0.9c0,0.5,0.4,0.9,0.9,0.9c0.2,0,0.4,0,0.6-0.1
			v-0.4h-0.5v-0.6h1.1L34.3,26.7z"/>
		<path id="Path_508" class="st2" d="M35.6,24.2h1.9v0.6h-1.3v0.5h1.2v0.6h-1.2v0.6h1.3v0.6h-1.9V24.2z"/>
		<path id="Path_509" class="st2" d="M38.8,24.2h1.1c0.6,0,1,0.2,1,0.8c0,0.4-0.2,0.7-0.6,0.7l0.7,1.2h-0.7l-0.6-1.1h-0.3v1.1h-0.6
			L38.8,24.2z M39.4,25.3h0.4c0.2,0,0.5,0,0.5-0.3c0-0.3-0.2-0.3-0.5-0.3h-0.4L39.4,25.3z"/>
		<path id="Path_510" class="st2" d="M43.4,24.1c0.8,0,1.4,0.7,1.4,1.5c0,0.8-0.7,1.4-1.5,1.4c-0.8,0-1.4-0.7-1.4-1.4
			c0-0.8,0.6-1.4,1.3-1.4C43.3,24.1,43.4,24.1,43.4,24.1 M43.4,26.4c0.5,0,0.9-0.4,0.9-0.8c0-0.5-0.4-0.9-0.8-0.9
			c-0.5,0-0.9,0.4-0.9,0.8c0,0,0,0,0,0C42.5,26,42.9,26.4,43.4,26.4C43.4,26.4,43.4,26.4,43.4,26.4"/>
		<path id="Path_511" class="st2" d="M47,24.2h0.5l1.2,2.7H48l-0.2-0.6h-1.1l-0.2,0.6h-0.7L47,24.2z M47.2,24.9l-0.3,0.8h0.7
			L47.2,24.9z"/>
	</g>
</g>
</svg>
