<?xml version="1.0" encoding="utf-8"?>
<!-- Generator: Adobe Illustrator 26.0.2, SVG Export Plug-In . SVG Version: 6.00 Build 0)  -->
<svg version="1.1" id="Layer_1" xmlns="http://www.w3.org/2000/svg" xmlns:xlink="http://www.w3.org/1999/xlink" x="0px" y="0px"
	 viewBox="0 0 38.2 37.9" style="enable-background:new 0 0 38.2 37.9;" xml:space="preserve">
<style type="text/css">
	.st0{clip-path:url(#SVGID_00000098904925202296842060000003329592565315708321_);}
	.st1{fill:#1E1E1E;}
</style>
<g>
	<defs>
		<rect id="SVGID_1_" width="38.2" height="37.9"/>
	</defs>
	<clipPath id="SVGID_00000122718423197576800830000004291025624870746272_">
		<use xlink:href="#SVGID_1_"  style="overflow:visible;"/>
	</clipPath>
	
		<g id="Group_695" transform="translate(0 0)" style="clip-path:url(#SVGID_00000122718423197576800830000004291025624870746272_);">
		<path id="Path_444" class="st1" d="M35.3,7.1c-1.6-0.9-3.3-1.6-5.1-2.2l-0.1,0l-1.4,1.4L29,6.3c1.5,0.5,3,1.1,4.4,1.8l-2,1.9
			c-4.3-1.8-8.9-2.7-13.5-2.7h-0.2h-0.1c-2.7-2-5.8-3.4-9.2-3.9c3.1-0.7,6.3-1.1,9.4-1.1c1.7,0,3.4,0.1,5.1,0.3
			c0.3,0,0.5,0.1,0.8,0.1c0.3,0,0.5,0.1,0.8,0.1c0-0.1,0-0.1,0-0.2c0-0.5,0.3-0.8,0.8-0.9c0,0,0.1,0,0.1,0c0.1,0,0.2,0,0.2,0
			c0.5,0.1,0.7,0.6,0.6,1.1c0,0.1-0.1,0.2-0.1,0.2c0.2,0.1,0.5,0.1,0.7,0.2c0.3,0.1,0.5,0.1,0.8,0.2c1,0.2,2,0.5,2.9,0.9L31.9,3
			c-0.3-0.1-0.5-0.2-0.5-0.2l-0.1,0c-1.1-0.4-2.3-0.7-3.5-1c-0.4-1.3-1.9-2-3.2-1.6c-0.4,0.1-0.8,0.4-1.1,0.8
			c-1.9-0.3-3.7-0.4-5.6-0.4C13.5,0.5,9,1.2,4.8,2.6l-0.1,0v2.2h0.1c3.4,0,6.8,0.9,9.8,2.6c-3.4,0.3-6.7,1.1-9.8,2.4l-0.1,0v1.8h0.1
			c7,0,12.7,5.7,12.7,12.7v0.1h1.8v-0.1c0-6.6-4.4-12.3-10.8-14c2.7-0.8,5.5-1.2,8.4-1.3c4.7,3.7,7.4,9.3,7.4,15.3v0.1h1.8v-0.1
			c0-5.7-2.2-11.1-6.2-15.1l-0.2-0.2c4,0.2,7.9,1.1,11.5,2.7l0.5,0.2l3.4-3.4l1.2-1.1L35.3,7.1z"/>
		<path id="Path_445" class="st1" d="M3,32.3h0.7c1.1,0,1.8-0.5,1.8-1.2c0-0.7-0.5-1-1.3-1c-0.3,0-0.5,0-0.8,0.1L3,32.3z M2.2,36.3
			c0.2,0,0.5,0,0.7,0c1.1,0,2-0.4,2-1.4c0-0.9-0.8-1.2-1.7-1.2H2.7L2.2,36.3z M1.7,28.8c0.8-0.1,1.6-0.2,2.4-0.2
			c0.8-0.1,1.6,0.1,2.3,0.5c0.6,0.3,1.1,1,1.1,1.7c0,1.1-0.8,2-1.9,2.2v0c0.9,0.3,1.5,1.1,1.4,2c0,0.9-0.5,1.7-1.3,2.2
			c-1.1,0.6-2.3,0.8-3.5,0.7c-0.8,0-1.6,0-2.3-0.2L1.7,28.8z"/>
		<path id="Path_446" class="st1" d="M7.5,37.8l0.7-4c0.2-1,0.3-2.1,0.3-2.7h1.7c0,0.4-0.1,0.9-0.1,1.4h0c0.4-0.9,1.2-1.4,2.1-1.5
			c0.1,0,0.2,0,0.4,0l-0.4,1.9c-0.1,0-0.2,0-0.3,0c-1.3,0-1.8,1.1-2.1,2.4l-0.5,2.5L7.5,37.8z"/>
		<path id="Path_447" class="st1" d="M17,32.5c-0.2,0-0.4-0.1-0.5-0.1c-1.3,0-2.2,1.6-2.2,2.8c0,0.7,0.3,1.1,0.8,1.1
			c0.6,0,1.3-0.7,1.6-2.3L17,32.5z M16.4,37.8c0-0.4,0.1-0.8,0.1-1.3h0c-0.4,0.9-1.3,1.5-2.2,1.5c-1.1,0-2-1-2-2.1
			c0-0.1,0-0.1,0-0.2c-0.1-2.5,1.9-4.6,4.3-4.6c0.1,0,0.3,0,0.4,0c0.7,0,1.5,0.1,2.2,0.3l-0.7,3.5c-0.2,1-0.3,2-0.3,3L16.4,37.8z"/>
		<path id="Path_448" class="st1" d="M19.3,37.8l1.8-9.7H23L22,33.9h0c0.2-0.3,0.4-0.5,0.6-0.8l1.7-2h2.4l-2.8,2.7l1.9,3.9h-2.2
			L22.4,35l-0.7,0.7l-0.4,2.1H19.3z"/>
		<path id="Path_449" class="st1" d="M30.7,32.5c-0.2,0-0.4-0.1-0.5-0.1c-1.3,0-2.2,1.6-2.2,2.8c0,0.7,0.3,1.1,0.8,1.1
			c0.6,0,1.3-0.7,1.6-2.3L30.7,32.5z M30.1,37.8c0-0.4,0.1-0.8,0.1-1.3h0c-0.4,0.9-1.3,1.5-2.2,1.5c-1.1,0-2.1-1-2-2.1
			c0-0.1,0-0.1,0-0.2c-0.1-2.5,1.9-4.6,4.3-4.6c0.1,0,0.3,0,0.4,0c0.7,0,1.5,0.1,2.2,0.3l-0.7,3.5c-0.2,1-0.3,2-0.3,3L30.1,37.8z"/>
		<path id="Path_450" class="st1" d="M33,37.8l0.7-4c0.2-1,0.3-2.1,0.3-2.7h1.7c0,0.4-0.1,0.9-0.1,1.4h0c0.4-0.9,1.2-1.4,2.1-1.5
			c0.1,0,0.2,0,0.4,0l-0.4,1.9c-0.1,0-0.2,0-0.3,0c-1.3,0-1.8,1.1-2.1,2.4L35,37.8L33,37.8z"/>
	</g>
</g>
</svg>
