<?xml version="1.0" encoding="utf-8"?>
<!-- Generator: Adobe Illustrator 26.0.2, SVG Export Plug-In . SVG Version: 6.00 Build 0)  -->
<svg version="1.1" id="Layer_1" xmlns="http://www.w3.org/2000/svg" xmlns:xlink="http://www.w3.org/1999/xlink" x="0px" y="0px"
	 viewBox="0 0 92.5 23.2" style="enable-background:new 0 0 92.5 23.2;" xml:space="preserve">
<style type="text/css">
	.st0{clip-path:url(#SVGID_00000171687624309908593900000004352641942056074170_);}
	.st1{fill:#1E1E1E;}
</style>
<g>
	<defs>
		<rect id="SVGID_1_" width="92.5" height="23.2"/>
	</defs>
	<clipPath id="SVGID_00000057866243983904274640000007520325616709411509_">
		<use xlink:href="#SVGID_1_"  style="overflow:visible;"/>
	</clipPath>
	<g id="Group_654" style="clip-path:url(#SVGID_00000057866243983904274640000007520325616709411509_);">
		<path id="Path_370" class="st1" d="M78.9,4.5h6.2c2.3,0,3.4,1.1,3.4,3.4v4.5c0,2.3-1.1,3.4-3.4,3.4h-3.6c-2.3,0-3.4-1.1-3.4-3.4v0
			c0-2.3,1.1-3.4,3.4-3.4h4v2.4h-4c-0.7,0-1.1,0.3-1.1,1.1v0c-0.1,0.5,0.3,1,0.8,1.1c0.1,0,0.2,0,0.3,0h3.6c0.5,0.1,1-0.3,1.1-0.8
			c0-0.1,0-0.2,0-0.3V8c0.1-0.5-0.3-1-0.8-1.1c-0.1,0-0.2,0-0.3,0h-6.2V4.5z M74.2,0h2.4v15.9h-2.4V0z M70.1,0h2.4v15.9h-2.4V0z
			 M67.7,15.9h-6.2c-2.3,0-3.4-1.1-3.4-3.4V8c0-2.3,1.1-3.4,3.4-3.4h3.6c2.3,0,3.4,1.1,3.4,3.4v0c0,2.3-1.1,3.4-3.4,3.4h-4V9.1h4
			c0.7,0,1.1-0.3,1.1-1.1v0c0.1-0.5-0.3-1-0.8-1.1c-0.1,0-0.2,0-0.3,0h-3.6c-0.5-0.1-1,0.3-1.1,0.8c0,0.1,0,0.2,0,0.3v4.5
			c-0.1,0.5,0.3,1,0.8,1.1c0.1,0,0.2,0,0.3,0h6.2V15.9z M52.1,15.9V8c0-2.3,1.1-3.4,3.4-3.4h1.6v2.4h-1.6c-0.5-0.1-1,0.3-1.1,0.8
			c0,0.1,0,0.2,0,0.3v8L52.1,15.9z M49.8,15.9h-6.2c-2.3,0-3.4-1.1-3.4-3.4V8c0-2.3,1.1-3.4,3.4-3.4h3.6c2.3,0,3.4,1.1,3.4,3.4v0
			c0,2.3-1.1,3.4-3.4,3.4h-4V9.1h4c0.7,0,1.1-0.3,1.1-1.1v0c0.1-0.5-0.3-1-0.8-1.1c-0.1,0-0.2,0-0.3,0h-3.6c-0.5-0.1-1,0.3-1.1,0.8
			c0,0.1,0,0.2,0,0.3v4.5c-0.1,0.5,0.3,1,0.8,1.1c0.1,0,0.2,0,0.3,0h6.2L49.8,15.9z M38.8,0v12.5c0,2.3-1.1,3.4-3.4,3.4h-3.6
			c-2.3,0-3.4-1.1-3.4-3.4V8c0-2.3,1.1-3.4,3.4-3.4h4v2.4h-4c-0.5-0.1-1,0.3-1.1,0.8c0,0.1,0,0.2,0,0.3v4.5c-0.1,0.5,0.3,1,0.8,1.1
			c0.1,0,0.2,0,0.3,0h3.6c0.5,0.1,1-0.3,1.1-0.8c0-0.1,0-0.2,0-0.3V0H38.8z M24.6,15.9V8c0.1-0.5-0.3-1-0.8-1.1c-0.1,0-0.2,0-0.3,0
			h-4.7V16h-2.4V4.5h7.1C25.8,4.5,27,5.7,27,8v8H24.6z M12.2,4.5h2.4v11.4h-2.4V4.5z M12,0h2.9v2.9H12L12,0z M10.5,15.9H3.4
			c-2.3,0-3.4-1.1-3.4-3.4V3.4C0,1.1,1.1,0,3.4,0h7.1v2.4H3.4c-0.5-0.1-1,0.3-1.1,0.8c0,0.1,0,0.2,0,0.3v9.1c-0.1,0.5,0.3,1,0.8,1.1
			c0.1,0,0.2,0,0.3,0h7.1L10.5,15.9z"/>
		<path id="Path_371" class="st1" d="M78.7,19.4h1.5c0.2,0,0.4,0,0.6,0.2C81,19.8,81,20,81,20.3c0,0.2,0,0.4-0.2,0.6
			c-0.2,0.1-0.5,0.2-0.7,0.2h-1.4V19.4z M78.7,23.1v-1.7h1.6c0.4,0,0.6,0.2,0.6,0.7v1h0.5v-1.1c0-0.5-0.2-0.8-0.7-0.8v0
			c0.2,0,0.4-0.1,0.6-0.3c0.1-0.2,0.2-0.5,0.1-0.8c0-0.3-0.1-0.7-0.3-0.9c-0.3-0.2-0.6-0.3-0.9-0.3h-2v4.1L78.7,23.1z M77.2,19.4V19
			h-2.7v4.1h2.7v-0.4H75v-1.5h2.1v-0.4H75v-1.4H77.2z M73.9,19.4V19h-3.2v0.4h1.4v3.7h0.5v-3.7H73.9z M70.3,19.4V19h-3.2v0.4h1.4
			v3.7h0.5v-3.7H70.3z M66.4,19.4V19h-2.7v4.1h2.7v-0.4h-2.2v-1.5h2.1v-0.4h-2.1v-1.4H66.4z M60.5,19v4.1h2.6v-0.4h-2.1V19H60.5z
			 M56.8,21.9l0.9-2.5l0.9,2.5H56.8z M59.1,23.1h0.5L58.1,19h-0.7l-1.5,4.1h0.5l0.3-0.9h2.1L59.1,23.1z M54.6,19.5
			c0.2,0.1,0.2,0.4,0.2,0.9v0.4v0.3c0.1,0.5,0,1-0.2,1.5c-0.1,0.1-0.5,0.2-1.2,0.2c-0.7,0-1-0.1-1.2-0.2c-0.2-0.5-0.2-1-0.2-1.5
			c-0.1-0.5,0-1,0.2-1.5c0.1-0.1,0.5-0.2,1.2-0.2C53.9,19.3,54.3,19.4,54.6,19.5 M52.1,19.3c-0.3,0.3-0.4,0.7-0.4,1.1l0,0.4v0.3
			c-0.1,0.6,0,1.2,0.3,1.8c0.2,0.2,0.7,0.3,1.5,0.3s1.3-0.1,1.5-0.3c0.3-0.6,0.4-1.2,0.3-1.8c0.1-0.6,0-1.2-0.3-1.7
			c-0.2-0.2-0.7-0.3-1.5-0.3C53,18.9,52.5,19,52.1,19.3 M51.1,19.4V19H48v0.4h1.3v3.7h0.5v-3.7L51.1,19.4z M47,19.2
			c-0.4-0.2-0.8-0.3-1.2-0.2c-0.4,0-0.8,0-1.2,0.2c-0.2,0.3-0.4,0.6-0.3,0.9c-0.1,0.5,0.3,1,0.9,1.1c0.1,0,0.1,0,0.2,0l0.5,0l0.5,0
			c0.2,0,0.4,0,0.5,0.2c0.1,0.1,0.1,0.3,0.1,0.5c0,0.4-0.1,0.6-0.2,0.7c-0.3,0.1-0.7,0.2-1,0.1c-0.3,0-0.6,0-0.9-0.1
			c-0.1-0.1-0.2-0.3-0.2-0.7v-0.1h-0.5V22c0,0.3,0.1,0.7,0.3,0.9c0.4,0.2,0.8,0.3,1.2,0.2c0.5,0,0.9,0,1.3-0.2
			c0.2-0.1,0.3-0.5,0.3-1c0-0.5-0.1-0.8-0.3-0.9c-0.4-0.2-0.8-0.3-1.2-0.2c-0.3,0-0.7,0-1-0.1c-0.1-0.1-0.2-0.3-0.2-0.6
			c0-0.3,0.1-0.5,0.2-0.6c0.3-0.1,0.6-0.2,0.9-0.1c0.3,0,0.5,0,0.8,0.1c0.1,0.1,0.2,0.3,0.2,0.6h0.5C47.3,19.8,47.2,19.4,47,19.2
			 M41.6,21.5H43c0,0.1,0,0.2,0,0.3c0,0.3,0,0.6-0.2,0.9c-0.3,0.2-0.6,0.2-0.9,0.2c-0.4,0-0.8,0-1.2-0.2c-0.2-0.1-0.2-0.4-0.2-1
			v-0.6l0-0.5c0-0.3,0-0.7,0.2-1c0.3-0.2,0.7-0.2,1-0.2c0.4,0,0.7,0,1.1,0.1c0.1,0.1,0.2,0.3,0.2,0.6v0.1h0.5V20
			c0-0.5-0.1-0.8-0.3-0.9c-0.4-0.2-0.9-0.2-1.4-0.2c-0.5-0.1-1,0.1-1.4,0.3c-0.3,0.3-0.4,0.8-0.4,1.2v0.4v0.6c-0.1,0.5,0,1,0.3,1.4
			c0.4,0.3,0.9,0.4,1.4,0.3c0.5,0.1,1,0,1.4-0.3c0.2-0.4,0.3-0.9,0.3-1.4c0-0.2,0-0.3,0-0.5h-1.8L41.6,21.5z M38.5,19v3.5v0.2v0.2h0
			l-0.2-0.3l-0.2-0.3l-0.4-0.7L36.2,19h-0.8v4.1h0.5v-3.4v-0.2v-0.2h0l0.1,0.2l0.1,0.2l0.3,0.5l1.7,2.8h0.8V19L38.5,19z M33.7,23.1
			h0.5V19h-0.5V23.1z M32,19v3.5v0.2v0.2h0l-0.2-0.3l-0.2-0.3l-0.4-0.7L29.7,19h-0.8v4.1h0.5v-3.4v-0.2v-0.2h0l0.1,0.2l0.1,0.2
			l0.3,0.5l1.7,2.8h0.8V19L32,19z M27.2,19v3.5v0.2v0.2h0L27,22.4l-0.2-0.3l-0.4-0.7L24.9,19h-0.8v4.1h0.5v-3.4v-0.2v-0.2h0l0.1,0.2
			l0.1,0.2l0.3,0.5l1.7,2.8h0.8V19L27.2,19z M23.1,19.4V19h-2.7v4.1h2.7v-0.4h-2.2v-1.5H23v-0.4h-2.1v-1.4L23.1,19.4z M16.8,19.4
			h1.5c0.2,0,0.4,0,0.6,0.2c0.1,0.2,0.2,0.5,0.1,0.7c0,0.2,0,0.4-0.2,0.6c-0.2,0.1-0.5,0.2-0.7,0.2h-1.4L16.8,19.4z M16.8,23.1v-1.7
			h1.6c0.4,0,0.6,0.2,0.6,0.7v1h0.5v-1.1c0-0.5-0.2-0.8-0.7-0.8v0c0.2,0,0.4-0.1,0.6-0.3c0.1-0.2,0.2-0.5,0.1-0.8
			c0-0.3-0.1-0.7-0.3-0.9C19,19.1,18.6,19,18.3,19h-2v4.1L16.8,23.1z M12.5,21.2h1.2c0.3,0,0.6,0,0.9,0.1c0.1,0.1,0.2,0.3,0.2,0.7
			c0,0.2,0,0.4-0.2,0.6c-0.2,0.1-0.5,0.2-0.7,0.1h-0.4h-1L12.5,21.2z M12.5,19.4h1.4c0.2,0,0.4,0,0.6,0.1c0.1,0.2,0.2,0.3,0.1,0.5
			c0,0.2,0,0.4-0.2,0.6c-0.2,0.1-0.5,0.2-0.8,0.1h-1.2L12.5,19.4z M14.1,23.1c0.3,0,0.6-0.1,0.9-0.3c0.2-0.3,0.3-0.6,0.3-0.9
			c0.1-0.4-0.2-0.9-0.7-1v0c0.4-0.1,0.6-0.5,0.5-0.9c0-0.3,0-0.6-0.2-0.9c-0.3-0.2-0.7-0.3-1-0.2H12v4.1L14.1,23.1z M8.2,19.4h1.5
			c0.2,0,0.4,0,0.6,0.2c0.1,0.2,0.2,0.5,0.1,0.7c0,0.2,0,0.4-0.2,0.6c-0.2,0.1-0.5,0.2-0.7,0.2H8.2V19.4z M8.2,23.1v-1.7h1.6
			c0.4,0,0.6,0.2,0.6,0.7v1h0.5v-1.1c0-0.5-0.2-0.8-0.7-0.8v0c0.2,0,0.4-0.1,0.6-0.3c0.1-0.2,0.2-0.5,0.1-0.8c0-0.3-0.1-0.7-0.3-0.9
			C10.4,19.1,10,19,9.7,19h-2v4.1L8.2,23.1z M6.1,19.5c0.2,0.1,0.2,0.4,0.2,0.9v0.4v0.3c0.1,0.5,0,1-0.2,1.5C6,22.7,5.7,22.8,5,22.8
			s-1-0.1-1.2-0.2c-0.2-0.5-0.2-1-0.2-1.5c-0.1-0.5,0-1,0.2-1.5C4,19.4,4.3,19.4,5,19.4C5.4,19.3,5.7,19.4,6.1,19.5 M3.6,19.3
			c-0.3,0.3-0.4,0.7-0.4,1.1l0,0.4v0.3c-0.1,0.6,0,1.2,0.3,1.8c0.2,0.2,0.7,0.3,1.5,0.3s1.3-0.1,1.5-0.3c0.3-0.6,0.4-1.2,0.3-1.8
			c0.1-0.6,0-1.2-0.3-1.7C6.3,19.1,5.8,19,5,19C4.5,18.9,4,19,3.6,19.3 M2.5,19.4V19H0v4.1h0.5v-1.9h2v-0.4h-2v-1.4L2.5,19.4z"/>
		<path id="Path_372" class="st1" d="M88.8,2c0-1,0.8-1.9,1.9-1.9c1,0,1.8,0.8,1.8,1.8c0,1-0.8,1.8-1.8,1.9S88.8,3,88.8,2
			C88.8,2,88.8,2,88.8,2 M92.2,2c0-0.8-0.7-1.5-1.5-1.5S89.2,1.2,89.2,2s0.7,1.5,1.5,1.5S92.2,2.8,92.2,2 M91.6,3h-0.5l-0.4-0.8
			h-0.4V3h-0.4V1h1c0.4,0,0.8,0.1,0.8,0.6c0,0.4-0.2,0.6-0.5,0.6L91.6,3z M90.9,1.9c0.2,0,0.4-0.1,0.4-0.3c0-0.3-0.3-0.3-0.5-0.3
			h-0.5v0.6H90.9z"/>
	</g>
</g>
</svg>
