<?xml version="1.0" encoding="utf-8"?>
<!-- Generator: Adobe Illustrator 26.0.2, SVG Export Plug-In . SVG Version: 6.00 Build 0)  -->
<svg version="1.1" id="Layer_1" xmlns="http://www.w3.org/2000/svg" xmlns:xlink="http://www.w3.org/1999/xlink" x="0px" y="0px"
	 viewBox="0 0 73.7 38.4" style="enable-background:new 0 0 73.7 38.4;" xml:space="preserve">
<style type="text/css">
	.st0{opacity:0.7;fill:#343434;enable-background:new    ;}
	.st1{opacity:0.85;fill:#1E1E1E;enable-background:new    ;}
	.st2{fill:#1E1E1E;}
</style>
<g id="Group_753" transform="translate(0 0.299)">
	<g id="Group_700" transform="translate(50.867 13.353)">
		<path id="Path_476" class="st0" d="M-19,2.5v5.7h15.8V2.5h-10.1V0.2H-19V2.5z"/>
		<rect id="Rectangle_511" x="-9" y="-5.6" class="st0" width="5.7" height="5.7"/>
		<path id="Path_477" class="st0" d="M-9-13.7v5.7H-19v2.4h5.7v-2.4h10.1v-5.7H-9z"/>
		<path id="Path_478" class="st1" d="M-24.8-13.7V8.2h5.7v-21.9H-24.8z"/>
		<path id="Path_479" class="st2" d="M-19,0.2H-9v-5.7H-19V0.2z"/>
		<rect id="Rectangle_512" x="-19" y="-13.7" class="st2" width="10.1" height="5.7"/>
		<g id="Group_699" transform="translate(0 31.021)">
			<path id="Path_480" class="st2" d="M-50.9-13.4v6.9h0.5v-3.4h3.4v-0.5h-3.4v-2.7h3.7v-0.5L-50.9-13.4z"/>
			<path id="Path_481" class="st2" d="M-43.4-11c-1.2,0-2.2,0.9-2.2,2.1c0,1.2,0.9,2.2,2.1,2.2c1.2,0,2.2-0.9,2.2-2.1c0,0,0,0,0,0
				c0-1.1-0.8-2.1-2-2.1C-43.3-11-43.4-11-43.4-11 M-43.4-6.3c-1.4,0-2.6-1.2-2.6-2.6c0-1.4,1.2-2.6,2.6-2.6c1.4,0,2.6,1.2,2.6,2.6
				C-40.8-7.5-42-6.3-43.4-6.3"/>
			<path id="Path_482" class="st2" d="M-39.5-6.4v-5h0.5v0.7h0c0.3-0.4,0.8-0.7,1.4-0.7c0.2,0,0.4,0,0.6,0.1l-0.1,0.4
				c-0.1,0-0.3-0.1-0.4,0c-0.6,0-1.1,0.3-1.4,0.9v3.7L-39.5-6.4z"/>
			<path id="Path_483" class="st2" d="M-36.2-6.4v-5h0.5v0.6h0c0.3-0.5,0.8-0.7,1.4-0.8c0.7-0.1,1.4,0.3,1.7,0.9h0
				c0.4-0.6,1-0.9,1.6-0.9c1.1,0,1.9,0.8,2,1.9c0,0.1,0,0.1,0,0.2v3h-0.5v-3c0.1-0.8-0.5-1.5-1.3-1.6c-0.1,0-0.2,0-0.3,0
				c-0.6,0-1.1,0.4-1.4,0.9v3.7h-0.5V-10c0-0.6-0.6-1-1.4-1c-0.6,0-1.2,0.3-1.4,0.9v3.7L-36.2-6.4z"/>
			<path id="Path_484" class="st2" d="M-24.2-7.5v-1.4c-1.7,0-3.1,0.2-3.1,1.3c0,0.7,0.8,0.9,1.4,0.9C-25.3-6.8-24.6-7.1-24.2-7.5
				 M-23-6.4c-0.1,0-0.1,0-0.2,0c-0.4,0-0.7-0.3-0.8-0.6h0c-0.5,0.5-1.2,0.7-1.9,0.8c-0.9,0-1.9-0.3-1.9-1.4c0-1.4,1.7-1.7,3.7-1.7
				v-0.3c0-0.7-0.5-1.3-1.3-1.3c-0.1,0-0.1,0-0.2,0c-0.6,0-1.2,0.2-1.6,0.6l-0.3-0.3c0.5-0.5,1.2-0.7,1.9-0.7c1-0.1,1.8,0.6,1.9,1.6
				c0,0.1,0,0.2,0,0.2v2.2c0,0.4,0.2,0.6,0.5,0.6c0,0,0.1,0,0.1,0L-23-6.4z"/>
			<path id="Path_485" class="st2" d="M-22.6-10.9v-0.4h0.8v-1.7h0.5v1.7h1v0.4h-1v3.5c0,0.6,0.4,0.6,0.7,0.6c0.1,0,0.3,0,0.4,0
				l0.1,0.4c-0.1,0-0.3,0-0.4,0c-0.5,0-1.2,0-1.2-1.1v-3.5H-22.6z"/>
			<path id="Path_486" class="st2" d="M-11.8-6.9v0.5h-4.4v-6.9h4.3v0.5h-3.8v2.7h3.6v0.5h-3.6v2.9L-11.8-6.9z"/>
			<path id="Path_487" class="st2" d="M-10.6-6.4h0.5v-5h-0.5V-6.4z M-10.6-12.5h0.5v-0.8h-0.5V-12.5z"/>
			<path id="Path_488" class="st2" d="M-8.2-9.3h3.8c0.1-0.9-0.6-1.6-1.4-1.7c-0.1,0-0.2,0-0.3,0C-7.2-11.1-8.1-10.3-8.2-9.3
				 M-8.3-8.9c0,1.2,1,2.1,2.2,2.1c0,0,0.1,0,0.1,0c0.6,0,1.2-0.2,1.6-0.6L-4-7c-0.6,0.5-1.2,0.7-2,0.7c-1.4,0.1-2.7-1-2.8-2.4
				c0-0.1,0-0.1,0-0.2c-0.1-1.4,1-2.5,2.4-2.6c0.1,0,0.2,0,0.2,0c1.1-0.1,2.1,0.7,2.2,1.8c0,0.1,0,0.2,0,0.3c0,0.2,0,0.5,0,0.5
				L-8.3-8.9z"/>
			<path id="Path_489" class="st2" d="M-2.7-6.4v-5h0.5v0.7h0c0.4-0.5,1.1-0.8,1.7-0.8c1.5,0,2.3,0.8,2.3,2v3H1.3v-3
				c0-1-0.6-1.6-1.8-1.6c-0.7,0-1.4,0.3-1.8,1v3.7H-2.7z"/>
			<path id="Path_490" class="st2" d="M3.5-8.9c0,1.1,0.8,2.1,2,2.1c0,0,0,0,0,0c0.7,0,1.3-0.3,1.7-0.9v-2.5c-0.4-0.6-1-0.9-1.7-0.9
				C4.4-11,3.5-10.1,3.5-8.9C3.5-8.9,3.5-8.9,3.5-8.9 M7.3-7.1C6.9-6.6,6.2-6.3,5.5-6.3c-1.4,0-2.6-1.2-2.6-2.6
				c0-1.4,1.2-2.6,2.6-2.6c0.6,0,1.2,0.3,1.6,0.7h0v-2.9h0.5v6.2c0,0.4,0.2,0.6,0.5,0.6c0,0,0.1,0,0.1,0c0,0.1,0.1,0.3,0.1,0.4
				c-0.1,0-0.1,0-0.2,0C7.7-6.4,7.4-6.7,7.3-7.1L7.3-7.1z"/>
			<path id="Path_491" class="st2" d="M11.7-11c-1.2,0-2.2,0.9-2.2,2.1c0,1.2,0.9,2.2,2.1,2.2c1.2,0,2.2-0.9,2.2-2.1c0,0,0,0,0,0
				c0-1.1-0.8-2.1-2-2.1C11.8-11,11.7-11,11.7-11 M11.7-6.3c-1.4,0-2.6-1.2-2.6-2.6c0-1.4,1.2-2.6,2.6-2.6c1.4,0,2.6,1.2,2.6,2.6
				c0,1.4-1.1,2.6-2.5,2.6C11.8-6.3,11.7-6.3,11.7-6.3"/>
			<path id="Path_492" class="st2" d="M15.6-6.4v-5h0.5v0.6h0c0.3-0.5,0.8-0.7,1.4-0.8c0.7-0.1,1.4,0.3,1.7,0.9h0
				c0.4-0.6,1-0.9,1.6-0.9c1.1,0,1.9,0.8,2,1.9c0,0.1,0,0.1,0,0.2v3h-0.5v-3c0.1-0.8-0.5-1.5-1.3-1.6c-0.1,0-0.2,0-0.3,0
				c-0.6,0-1.1,0.4-1.3,0.9v3.7h-0.5V-10c0-0.6-0.6-1-1.4-1c-0.6,0-1.2,0.3-1.4,0.9v3.7L15.6-6.4z"/>
		</g>
	</g>
</g>
</svg>
