<?xml version="1.0" encoding="utf-8"?>
<!-- Generator: Adobe Illustrator 26.0.2, SVG Export Plug-In . SVG Version: 6.00 Build 0)  -->
<svg version="1.1" id="Layer_1" xmlns="http://www.w3.org/2000/svg" xmlns:xlink="http://www.w3.org/1999/xlink" x="0px" y="0px"
	 viewBox="0 0 102.1 23.2" style="enable-background:new 0 0 102.1 23.2;" xml:space="preserve">
<style type="text/css">
	.st0{fill:#1E1E1E;}
	.st1{fill-rule:evenodd;clip-rule:evenodd;fill:#FFFFFF;}
</style>
<path class="st0" d="M0,0v23.2h102.1V0H0z M36.1,7.5c-1-0.1-2,0.1-3,0.5C24.6-1.6,17,2.5,14,4.9c0,0-0.1-0.1-0.1-0.1
	C17.3,2.1,27-3.8,36.1,7.5z M39.4,16.3h3.6c10.5,10.2,20.9,2.9,24.4-0.3l0.2,0.1C63.7,19.7,51,29.7,39.4,16.3z"/>
<path id="Path_374" class="st1" d="M6.2,19.4c1,0,1.8-1.8,2.3-3.2l2.6-8h1.7l-2.7,8.2C9.8,18.3,8.1,19.5,6.2,19.4L6.2,19.4z"/>
<path id="Path_375" class="st1" d="M4.5,9.4H2.9l0.4-1.2h1.5L5,7.7c0.4-1.9,2.2-3.2,4.1-3.1c0.4,0,0.9,0,1.3,0.1L9.9,6.1
	C9.6,6,9.2,5.9,8.9,5.9c-1.1,0-1.7,0.5-2.1,1.8L6.6,8.2h2.1L8.3,9.4H6.2L4.5,9.4z"/>
<path id="Path_376" class="st1" d="M6.2,9.4l-2.3,7c-0.4,1.8-2.1,3.1-3.9,3v0c1,0,1.8-1.8,2.3-3.2l2.2-6.7L6.2,9.4z"/>
<path id="Path_377" class="st1" d="M19.4,8c-2.8,0-5.2,2.2-5.4,5.1c-0.2,1.7,0.6,2.7,2.8,2.7h0c2.8-0.1,5.2-2.2,5.5-5
	C22.4,9.2,21.6,8,19.4,8z M20.4,10.9c-0.2,1.9-1.7,3.5-3.2,3.5c-1.1,0-1.5-0.6-1.4-1.5c0.2-1.7,1.5-3.5,3.2-3.5
	C20.1,9.4,20.5,9.9,20.4,10.9z"/>
<path id="Path_378" class="st1" d="M29.5,9.6c-1.3-0.4-3.2,2.1-3.9,4.4L25,15.6h-1.7l1.3-3.9c0.3-1,0.8-2.4,1.1-3.5h1.7
	c-0.3,0.9-0.6,1.7-1.1,2.5l0,0C27.4,9,28.5,7.8,30,8L29.5,9.6z"/>
<path id="Path_379" class="st1" d="M37.9,4.7l-1.1,3.4c-0.3,0-0.7-0.1-1-0.1c-3.1-0.1-5.7,2.3-5.8,5.4c-0.2,1.6,0.4,2.3,1.6,2.3
	c1.9,0,3.3-1.8,4-2.9l0,0c-0.5,0.9-0.9,1.8-1.2,2.7h1.7c0.2-0.9,0.6-1.9,0.9-2.7l2.7-8.2H37.9z M36.2,10c-0.6,1.7-2.5,4.4-3.8,4.4
	c-0.5,0-0.7-0.4-0.6-1.2c0.2-1.7,1.4-3.9,3.6-3.9h0c0.3,0,0.7,0,1,0.1L36.2,10z"/>
<path id="Path_380" class="st1" d="M41,15.6h-1.7l3.6-10.9h1.7L41,15.6z"/>
<path id="Path_381" class="st1" d="M48.4,5.1c-0.6,0-1.2,0.4-1.3,1c0,0.1,0,0.1,0,0.2c0,0.5,0.5,0.8,0.9,0.8c0.6,0,1.2-0.4,1.3-1
	c0-0.1,0-0.1,0-0.2C49.3,5.4,48.8,5,48.4,5.1z M46.6,8.2l-2.4,7.4h1.7l2.4-7.4H46.6z"/>
<path id="Path_382" class="st1" d="M55.9,15.6h-1.7l1.6-4.7c0.4-1.1,0.2-1.5-0.5-1.5c-1.3,0-3.3,2.7-3.8,4.5l-0.6,1.8h-1.7l1.3-3.9
	c0.4-1.2,0.8-2.5,1.1-3.5h1.7c-0.3,0.9-0.7,1.8-1.1,2.6l0,0c0.9-1.5,2.3-2.8,4-2.8c1.6,0,1.9,1,1.4,2.5L55.9,15.6z"/>
<path id="Path_383" class="st1" d="M64.6,8c-2.6,0-4.8,2.3-5.2,5.3C59.2,15,60,15.8,62,15.8c1,0,2-0.1,3-0.5l0.1-1.3
	c-0.8,0.3-1.6,0.4-2.4,0.4c-1.2,0-1.6-0.3-1.5-1.3c0-0.3,0.1-0.5,0.2-0.8c3.4-0.1,5.4-1,5.6-2.7C67,8.9,66.5,8,64.6,8z M61.7,11.4
	c0.4-1.2,1.4-2,2.6-2.1c0.6,0,1,0.3,0.9,0.8C65.1,10.9,64,11.3,61.7,11.4z"/>
<path id="Path_384" class="st1" d="M68.5,15.8c-0.5,0-1-0.4-1-0.9c0-0.1,0-0.1,0-0.2c0.1-0.6,0.7-1.1,1.3-1.1c0.5,0,1,0.4,1,0.9
	c0,0.1,0,0.1,0,0.2C69.7,15.3,69.2,15.8,68.5,15.8L68.5,15.8z"/>
<path id="Path_385" class="st1" d="M12.5,7.1c-0.5,0-0.9-0.3-0.9-0.8c0-0.1,0-0.1,0-0.2c0.1-0.6,0.7-1.1,1.3-1
	c0.5,0,0.9,0.3,0.9,0.8c0,0.1,0,0.1,0,0.2C13.6,6.6,13.1,7.1,12.5,7.1L12.5,7.1z"/>
<path id="Path_386" class="st1" d="M79.3,9.7c-0.4-0.2-0.9-0.3-1.4-0.3c-2,0-3.1,1.9-3.2,3.5c-0.1,0.8,0.1,1.5,1.4,1.5
	c0.6,0,1.2-0.1,1.8-0.3l-0.3,1.4c-0.7,0.2-1.4,0.3-2.2,0.3c-2.2,0-2.9-1-2.7-2.5c0.2-2.9,2.6-5.1,5.4-5.2c0.6,0,1.2,0.1,1.7,0.2
	L79.3,9.7z"/>
<path id="Path_387" class="st1" d="M84.9,8.1c-2.4,0-4.6,2-5,5c-0.2,1.7,0.6,2.7,2.5,2.7c2.7-0.2,4.8-2.3,5-5
	C87.7,9.2,87,8.1,84.9,8.1z M85.8,10.9c-0.2,1.9-1.5,3.5-3,3.5c-1,0-1.3-0.6-1.2-1.5c0.2-1.7,1.4-3.5,2.9-3.5
	C85.5,9.4,85.9,10,85.8,10.9z"/>
<path id="Path_388" class="st1" d="M99.7,15.6h-1.8l1.6-4.7c0.4-1.1,0.2-1.5-0.4-1.5c-1.1,0-3.1,2.2-3.8,4.4l-0.6,1.8h-1.7l1.6-4.7
	c0.4-1.1,0.2-1.5-0.4-1.5c-1.3,0-3.2,2.5-3.8,4.4l-0.6,1.8h-1.8l1.3-3.9c0.4-1.2,0.8-2.5,1.1-3.5h1.7c-0.3,0.9-0.7,1.8-1.2,2.6l0,0
	c0.9-1.5,2.3-2.8,4-2.8c1,0,1.6,0.5,1.5,1.5c-0.1,0.5-0.3,1-0.5,1.4h0c0.9-1.5,2.3-2.8,4-2.8c1.5,0,1.9,1,1.4,2.5L99.7,15.6z"/>
</svg>
