<?xml version="1.0" encoding="utf-8"?>
<!-- Generator: Adobe Illustrator 26.0.2, SVG Export Plug-In . SVG Version: 6.00 Build 0)  -->
<svg version="1.1" id="Layer_1" xmlns="http://www.w3.org/2000/svg" xmlns:xlink="http://www.w3.org/1999/xlink" x="0px" y="0px"
	 viewBox="0 0 94.1 31.3" style="enable-background:new 0 0 94.1 31.3;" xml:space="preserve">
<style type="text/css">
	.st0{clip-path:url(#SVGID_00000006690527194111086130000004146506609460932792_);}
	.st1{fill:#2E2E2D;}
</style>
<g>
	<defs>
		<rect id="SVGID_1_" width="94.1" height="31.3"/>
	</defs>
	<clipPath id="SVGID_00000013158039079289114730000004727601391480657083_">
		<use xlink:href="#SVGID_1_"  style="overflow:visible;"/>
	</clipPath>
	<g id="Group_660" style="clip-path:url(#SVGID_00000013158039079289114730000004727601391480657083_);">
		<path id="Path_397" class="st1" d="M25.6,4.4c0,0.3,0.4,7.6,0.4,7.8c0,0.2,0.1,0.3,0.2,0.5c0.1,0.1,0.6,0.9,0.9,1.1
			c0,0,0.1,0,0.1,0c0,0,0,0,0,0c0.6-0.9,1.2-1.9,1.6-3c0.2-0.5,1.7-5.3,1.8-5.7C30.8,5,30.9,4.9,31,5c0,0,0.1,0,0.1,0
			c0.1,0.1,1.4,0.9,1.5,1c0.1,0,0.1,0.1,0.1,0.2c-0.1,1.3-0.3,2.6-0.6,3.8c-0.7,2-1.6,4-2.6,5.9c-0.4,0.4-3.8,4-3.9,4.2
			c-0.2,0.1-0.3,0.3-0.5,0.3c-0.3,0.1-3.1,1.1-3.8,1.2c0,0-0.1,0-0.1,0c-0.2-0.2-0.3-0.4-0.3-0.7c0-0.1,0-0.1,0.1-0.2
			c0.1-0.1,3.2-3.4,4-4.3c0.1-0.1,0.1-0.3-0.1-0.6c-0.3-0.3-1.6-1.7-1.7-1.9c-0.1-0.3-0.2-0.6-0.1-1c0-0.2,0.2-6.2,0.3-7.2
			c0-0.1,0-0.1,0.1-0.2c0.3-0.3,1.5-1.2,1.8-1.4C25.4,4.1,25.6,4.1,25.6,4.4"/>
		<path id="Path_398" class="st1" d="M0.4,1C0.1,1.1,0,1.1,0,1.3s0,5.9,0,6.6c0,0.5,0.3,7.6,0.4,9.3c0.1,0.9,0.1,2.6,0.2,2.8
			c0,0.2,0.1,0.3,0.3,0.4c0.2,0.1,2.2,1.2,2.4,1.2c0.3-0.1,0.5-0.3,0.5-0.6c0-0.4-0.2-7.1-0.2-7.3c0-0.1,0.1-0.2,0.2-0.3
			c0.2-0.1,1.7-1,2-1.2c0.3-0.2,0.9-0.4,1-0.5c0.1,0,0.2,0,0.2,0.2c0,0.1,0.2,3.8,0.2,4.2c0,0.3,0.3,3.8,0.4,4s0.5,0.6,0.6,0.6
			c0.3-0.4,0.6-0.8,0.9-1.2c0.3-0.4,0.6-0.9,0.8-1.4c0-0.3,0.2-6.4,0.2-6.7s0-4.8,0-5.1S9.9,2.5,9.9,2.4c0-0.2-0.2-0.2-0.4-0.3
			c-0.2,0-1.9-0.6-2-0.6S6.9,1.9,6.9,2.1S6.9,5.2,6.9,5.5s0,2.4,0,2.5c0,0.1,0,0.3-0.1,0.3C6.5,8.4,3.6,9.9,3.5,9.9s-0.2,0-0.2-0.2
			c0-0.2,0.1-6.1,0.1-6.4s0-3,0-3.1c0-0.1-0.5-0.3-0.7-0.3S0.6,0.9,0.4,1"/>
		<path id="Path_399" class="st1" d="M23.2,1.1c0-0.1,0-0.3,0-0.4c0-0.1,0-0.1-0.1-0.1c-0.1,0-2.1-0.2-2.2-0.2c0,0-0.1,0-0.2,0.1
			c-0.1,0.2-0.5,0.9-0.7,1.3c-0.2,0.3-0.3,0.6-0.5,0.9c-0.1,0.1-0.2,0.1-0.3,0.1c-0.5-0.2-1.1-0.4-1.7-0.5c-0.3,0-3.5,0.7-4.1,1.3
			s-1.9,1.7-1.9,5s0,4.8,0,5.3c0.2,0.6,0.5,1.3,1,1.8c0.1,0.2,0.3,0.4,0.4,0.5c0,0,0,0.1,0,0.1c0,0.1-1.3,3.3-1.4,3.6
			c-0.1,0.2-0.1,0.4-0.1,0.6c0,0.1,0.1,0.1,0.1,0.2c0.1,0,0.6,0.3,0.9,0.3c0.1,0,0.2,0,0.2,0c0.3-0.1,0.5-0.3,0.8-0.5
			c0.1-0.2,2.3-3.3,2.4-3.5c0-0.1,0.1-0.1,0.2-0.1c0.2,0,2.6-0.1,3.5-1.2c1.1-1.7,1.9-3.6,2.2-5.6c-0.1-1.7-0.4-3.4-0.8-5
			c0-0.1,0-0.2,0-0.3C21.2,4.4,23.1,1.4,23.2,1.1 M19,11.4c-0.2,0.3-1.1,2-1.4,2.1c-0.8,0.1-1.6,0.2-2.4,0.1c-0.4,0-0.8-0.3-0.9-0.8
			c-0.1-0.8-0.2-2.5-0.2-3.5c0-1.3-0.1-2.9,0.5-3.7c0.4-0.7,1.1-1.1,1.9-1.1c0.7,0.2,1.4,0.6,2,1.1c0.5,1.2,0.8,2.5,0.8,3.8
			C19.3,10.2,19.2,10.8,19,11.4"/>
		<path id="Path_400" class="st1" d="M40.5,3.2c-0.1,0-2.6-0.5-3-0.6s-9.5-1.9-9.8-1.9s-0.7,0.5-0.8,0.7c-0.1,0.2-0.2,0.5-0.3,0.7
			c0,0.1,0,0.2,0.1,0.3c0,0,0,0,0,0c1,0.3,7.8,1.8,8.1,1.9c0.1,0,0.1,0.1,0.1,0.2c0,0.3-0.4,5.4-0.4,5.6s-0.4,8.8-0.4,9
			c0.2,0.4,0.5,0.8,0.9,1c0.2,0.1,1.3-1.9,1.3-1.9c0.1-0.2,0.3-0.4,0.3-0.7c0-0.2,0.4-6.8,0.5-7s0.6-5.1,0.6-5.2s0-0.2,0.2-0.2
			s2.9,0.6,3.2,0.6c0,0,0.1,0,0.2-0.1c0.1-0.6,0-1.1-0.1-1.7c-0.1-0.3-0.2-0.5-0.4-0.7C40.7,3.3,40.6,3.2,40.5,3.2"/>
		<path id="Path_401" class="st1" d="M55.9,0.9c0.1,0,2-0.8,2.2-0.9c0.1,0,0.5,0.2,0.5,0.4c0,0.2,0,3.4,0,3.7s0,1.6,0.1,2
			s0.6,7.4,0.6,7.5c0.1,0.2,0.3,0.3,0.5,0.3c0.3,0,5.7-0.1,6-0.1s0.4,0.1,0.4,0.3c-0.1,0.2-0.6,1.8-0.7,1.9
			c-0.1,0.2-0.4,0.4-0.7,0.4c-0.4,0-4.9,0.2-5.3,0.2s-2.7-0.3-2.9-0.3s-0.3-0.3-0.4-0.5c0-0.2-0.6-4.4-0.6-5.1
			c0-0.8,0.1-9.6,0.1-9.7C55.8,1,55.9,0.9,55.9,0.9"/>
		<path id="Path_402" class="st1" d="M67,0.7c0.4-0.2,0.9-0.4,1.3-0.6c0.1,0,0.2,0,0.3,0.3c0.1,0.3,1.5,6.5,1.9,8.7
			c0.4,2.2,0.6,4.4,0.8,6.6c0.1,1.2,0.1,2.3,0,3.5c-0.1,0.2-0.4,0.2-0.5,0.2c-0.1,0-0.8,0-0.9-0.1s-0.3-0.3-0.3-0.4
			s-0.8-4.3-0.9-5.1s-1.2-7.3-1.3-7.6s-0.1-0.8-0.1-0.9c0-0.1-0.1-0.1-0.1-0.1c0,0,0,0,0,0C67,5.3,67,5.4,67,5.4
			c0,0.1-0.6,1.4-0.8,1.7c-0.1,0.2-2.2,4.7-2.3,4.9c-0.1,0.1-0.3,0.2-0.5,0.2c-0.5-0.1-1.1-0.2-1.6-0.3c-0.2-0.1-0.3-0.2-0.3-0.4
			c0-0.4,2.5-5.6,2.8-6.1c0.5-1.2,2.4-4.2,2.4-4.3C66.7,0.8,66.8,0.7,67,0.7"/>
		<path id="Path_403" class="st1" d="M72.4,2.8c0.2,0,1.8-0.1,2-0.1c0.2,0,0.3,0.2,0.4,0.3c0.1,0.3,0.8,6.3,0.8,6.6s0.4,4.6,0.4,4.6
			c0,0.1,0.1,0.1,0.1,0.1c0.1,0,0.1,0,0.1-0.1c0.1-0.2,2.4-5.2,2.5-5.4s1.3-3,1.3-3.1c0-0.1,0.2-0.2,0.3-0.1c0,0,0,0,0,0
			c0.1,0.1,1.6,1.1,1.7,1.2s0.3,0.4,0.3,0.6c-0.1,0.2-0.7,1.9-0.9,2.3s-2.7,5.8-2.9,6s-2.2,3.7-2.4,4s-0.7,1.1-0.8,1.3
			s-0.3,0.5-0.5,0.4c-0.3-0.1-0.6-0.1-0.7-0.2c-0.2-0.1-0.3-0.4-0.4-0.5c-0.1-0.2-0.5-6.2-0.5-6.6s-0.6-7.1-0.6-7.8S72.3,3.1,72.3,3
			C72.3,2.9,72.3,2.8,72.4,2.8"/>
		<path id="Path_404" class="st1" d="M81.3,1.5c0-0.3,0.3-0.3,0.7-0.3s5-0.1,5.6-0.1S93.3,1,93.7,1C94,1,94,1.1,94.1,1.2
			c0,0.4-0.2,0.7-0.3,1c-0.4,0.3-0.9,0.5-1.4,0.7C91.9,3,89,3.4,88.6,3.5c-0.3,0.1-0.4,0.1-0.5,0.4s-1.7,8-1.9,8.5
			c-0.2,0.5-1.9,7.6-2,7.7s-0.3,0.2-0.4,0.2c-0.1,0-1.7-0.1-1.9-0.1c-0.2,0-0.6-0.6-0.7-0.8c0-0.4,0-0.7,0.1-1c0.1-0.5,1.9-8,2-8.4
			s0.5-1.8,0.5-2s0.8-3.8,0.9-4c0-0.2,0-0.3-0.3-0.3s-2.4-0.2-2.6-0.3c-0.2,0-0.2-0.1-0.3-0.3C81.5,2.5,81.4,2,81.3,1.5"/>
		<path id="Path_405" class="st1" d="M50.4,12.6c-1.1-1.3-2.7-3-3.1-3.4c-0.7-0.8-1.3-1.7-1.7-2.6c-0.4-0.8-0.3-1.8,0.1-2.6
			c0.6-0.6,1.4-0.9,2.2-0.8c0.7,0.1,1.3,0.6,1.6,1.2c0.1,0.2,0.4,0.9,0.6,1c0.3,0.1,0.9-0.1,1.2-0.2c0.1,0,0.3-0.1,0.3-0.3
			c-0.1-0.8-0.4-1.6-1-2.3c-0.9-0.9-2.2-1.4-3.5-1.3c-2.5,0.4-3.5,1.8-3.7,2.3C43,4.7,43,5.9,43.3,7c0.5,0.8,1,1.6,1.6,2.4
			c0.1,0.1,0,0.2,0,0.3c-0.1,0.1-1.8,1.7-2.1,2c-0.7,0.7-1.2,1.9-1.1,3.8c0,2.1,0.8,4.5,2.5,5c1.3,0.3,2.7,0.5,4.1,0.4
			c1.4,0,3.1-1.8,4.2-3c0.1-0.1,0.2-0.1,0.2,0c0.1,0.1,3.3,2.9,3.7,3.2c0.2,0.1,0.4,0.2,0.6,0.2h1.1c0.1,0,0.1-0.1,0-0.2
			C57.4,20.4,52,14.5,50.4,12.6 M51,16.6c-0.6,0.6-2,2.2-2.9,2.3c-0.9,0.1-1.7,0-2.6-0.2c-1.1-0.3-1.6-2-1.7-3
			c-0.1-1.2,0.3-2.4,1-3.3c0.4-0.4,0.9-0.8,1.3-1.1c0.1-0.1,0.2,0,0.2,0c0.2,0.2,4.5,5,4.6,5.1S51.1,16.5,51,16.6"/>
		<path id="Path_406" class="st1" d="M4.8,29.3H4.2v2H3.4v-4.7h0.8v2h0.5l1.5-2h0.9l-1.7,2.3l1.9,2.5h-1L4.8,29.3z"/>
		<path id="Path_407" class="st1" d="M11.9,30.7H14v0.6h-3v-4.7h0.8L11.9,30.7z"/>
		<path id="Path_408" class="st1" d="M20.8,30.2h-1.9l-0.4,1.1h-0.8l1.7-4.7h0.7l1.7,4.7h-0.8L20.8,30.2z M19.2,29.5h1.4l-0.7-2h0
			L19.2,29.5z"/>
		<path id="Path_409" class="st1" d="M28.6,27.2h-1.4v4.1h-0.8v-4.1H25v-0.6h3.6V27.2z"/>
		<path id="Path_410" class="st1" d="M33.3,29.3v2h-0.8v-4.7h1.7c0.4,0,0.9,0.1,1.2,0.4c0.3,0.3,0.5,0.6,0.4,1
			c0,0.2-0.1,0.4-0.2,0.6c-0.1,0.2-0.3,0.3-0.6,0.4c0.2,0.1,0.4,0.2,0.6,0.4c0.1,0.2,0.2,0.5,0.2,0.7v0.4c0,0.1,0,0.3,0.1,0.4
			c0,0.1,0.1,0.2,0.2,0.3v0.1h-0.8c-0.1-0.1-0.2-0.2-0.2-0.3c0-0.1,0-0.3,0-0.5v-0.4c0-0.2-0.1-0.4-0.2-0.6
			c-0.2-0.1-0.4-0.2-0.6-0.2L33.3,29.3z M33.3,28.7h0.9c0.2,0,0.5,0,0.7-0.2c0.2-0.1,0.2-0.3,0.2-0.6c0-0.2-0.1-0.4-0.2-0.6
			c-0.2-0.1-0.4-0.2-0.7-0.2h-1V28.7z"/>
		<path id="Path_411" class="st1" d="M43,29.2H41v1.5h2.4v0.6h-3.2v-4.7h3.2v0.6H41v1.3H43L43,29.2z"/>
		<path id="Path_412" class="st1" d="M48.1,29.5v1.8h-0.8v-4.7h1.8c0.4,0,0.9,0.1,1.2,0.4c0.6,0.6,0.6,1.5,0,2.1c0,0,0,0,0,0
			c-0.3,0.3-0.8,0.4-1.2,0.4L48.1,29.5z M48.1,28.9h1.1c0.2,0,0.5-0.1,0.7-0.2c0.1-0.2,0.2-0.4,0.2-0.6c0-0.4-0.3-0.8-0.7-0.8
			c0,0-0.1,0-0.1,0h-1.1V28.9z"/>
		<path id="Path_413" class="st1" d="M57.1,30.2h-1.8l-0.4,1.1h-0.8l1.7-4.7h0.7l1.7,4.7h-0.8L57.1,30.2z M55.5,29.5h1.4l-0.7-2h0
			L55.5,29.5z"/>
		<path id="Path_414" class="st1" d="M63,29.3v2h-0.8v-4.7H64c0.4,0,0.9,0.1,1.2,0.4c0.3,0.3,0.5,0.6,0.4,1c0,0.2-0.1,0.4-0.2,0.6
			c-0.1,0.2-0.3,0.3-0.6,0.4c0.2,0.1,0.4,0.2,0.6,0.4c0.1,0.2,0.2,0.5,0.2,0.7v0.4c0,0.1,0,0.3,0.1,0.4c0,0.1,0.1,0.2,0.2,0.3v0.1
			H65c-0.1-0.1-0.2-0.2-0.2-0.3c0-0.1,0-0.3,0-0.5v-0.4c0-0.2-0.1-0.4-0.2-0.6c-0.2-0.1-0.4-0.2-0.6-0.2L63,29.3z M63,28.7h0.9
			c0.2,0,0.5,0,0.7-0.2c0.2-0.1,0.2-0.3,0.2-0.6c0-0.2-0.1-0.4-0.2-0.6c-0.2-0.1-0.4-0.2-0.7-0.2h-1L63,28.7z"/>
		<path id="Path_415" class="st1" d="M71.2,29.3h-0.5v2h-0.8v-4.7h0.8v2h0.5l1.5-2h0.9l-1.7,2.3l1.9,2.5h-1L71.2,29.3z"/>
		<path id="Path_416" class="st1" d="M80.4,29.2h-2.1v1.5h2.4v0.6h-3.2v-4.7h3.2v0.6h-2.4v1.3h2.1L80.4,29.2z"/>
		<path id="Path_417" class="st1" d="M85.5,29.3v2h-0.8v-4.7h1.7c0.4,0,0.9,0.1,1.2,0.4c0.3,0.3,0.5,0.6,0.4,1
			c0,0.2-0.1,0.4-0.2,0.6c-0.1,0.2-0.3,0.3-0.6,0.4c0.2,0.1,0.4,0.2,0.6,0.4c0.1,0.2,0.2,0.5,0.2,0.7v0.4c0,0.1,0,0.3,0.1,0.4
			c0,0.1,0.1,0.2,0.2,0.3v0.1h-0.8c-0.1-0.1-0.2-0.2-0.2-0.3c0-0.1,0-0.3,0-0.5v-0.4c0-0.2-0.1-0.4-0.2-0.6
			c-0.2-0.1-0.4-0.2-0.6-0.2L85.5,29.3z M85.5,28.7h0.9c0.2,0,0.5,0,0.7-0.2c0.2-0.1,0.2-0.3,0.2-0.6c0-0.2-0.1-0.4-0.2-0.6
			c-0.2-0.1-0.4-0.2-0.7-0.2h-1L85.5,28.7z"/>
	</g>
</g>
</svg>
