<?xml version="1.0" encoding="utf-8"?>
<!-- Generator: Adobe Illustrator 26.0.2, SVG Export Plug-In . SVG Version: 6.00 Build 0)  -->
<svg version="1.1" id="Layer_1" xmlns="http://www.w3.org/2000/svg" xmlns:xlink="http://www.w3.org/1999/xlink" x="0px" y="0px"
	 viewBox="0 0 77.6 22.5" style="enable-background:new 0 0 77.6 22.5;" xml:space="preserve">
<style type="text/css">
	.st0{fill:#161615;}
	.st1{fill:#E2E3E3;}
	.st2{clip-path:url(#SVGID_00000021102576269336660490000003014600271889076900_);}
	.st3{fill:#FFFFFF;}
</style>
<g>
	<path class="st0" d="M0,0v22.5h77.6V0H0z M77.2,22.1H0.4v-19h76.8V22.1z"/>
	<rect x="0.4" y="2.8" class="st1" width="76.8" height="0.3"/>
	<rect x="0" y="0" class="st0" width="77.5" height="3.1"/>
	<g id="Group_658" transform="translate(0 0)">
		<g>
			<defs>
				<rect id="SVGID_1_" width="77.6" height="22.5"/>
			</defs>
			<clipPath id="SVGID_00000084505540096684313050000012185842470226825393_">
				<use xlink:href="#SVGID_1_"  style="overflow:visible;"/>
			</clipPath>
			<g id="Group_657" style="clip-path:url(#SVGID_00000084505540096684313050000012185842470226825393_);">
				<path id="Path_389" class="st3" d="M10.6,19.9c-4.1,0-7.4-2.5-7.4-5c0-3.2,3.3-5.3,7.4-5.3s7.4,2.1,7.4,5.3
					C18.1,17.4,14.7,19.9,10.6,19.9"/>
				<path id="Path_390" class="st0" d="M20,17.2c1,0.2,2.2,0.2,2.9-0.6c0.6-0.7,0.5-1.8,0.6-2.8c0-2.5,0-5.1-0.1-7.6h3.3
					c-0.1,2.6-0.1,5.1-0.1,7.8c0,1.4,0.1,2.8-0.9,3.9c-1.1,1.3-2.8,1.6-4.6,1.6l-0.4,0L20,17.2z"/>
				<path id="Path_391" class="st0" d="M71.2,18.8c-1.5-2.4-3.3-4.6-5-6.9l0,0c0,2.3,0,4.6,0.1,6.9h-2.9c0.1-4.1,0.1-8.4,0-12.5h2.6
					c1.5,2.4,3.3,4.7,5,6.9c0-2.3,0-4.7-0.1-6.9h2.9c0,1.4-0.1,2.8-0.1,4.1c0,2.8,0,5.6,0.1,8.4L71.2,18.8z"/>
				<path id="Path_392" class="st0" d="M46.9,18.8c-0.1-3.4-0.1-6.8-0.1-10.2c1,0,2.2,0,3.2,0.1V6.3h-9.5v2.4c1-0.1,2.1-0.1,3.2-0.1
					c0.1,3.4,0.1,6.8-0.1,10.2L46.9,18.8z"/>
				<path id="Path_393" class="st0" d="M56.2,19.1c-0.8,0-1.5-0.1-2.2-0.3c-1.2-0.4-2.1-1.2-2.5-2.3c-0.3-1.1-0.4-2.3-0.3-3.5
					c0-2.2,0-4.5-0.1-6.7h3.2c-0.1,2.5-0.1,5.1-0.1,7.6c-0.1,0.9,0.1,1.8,0.7,2.5c0.8,0.7,2,0.7,2.8,0c0.5-0.7,0.8-1.6,0.7-2.5
					c0-2.5,0-5.1-0.1-7.6h3.2c-0.1,2.2-0.1,4.5-0.1,6.7c0.1,1.2,0,2.4-0.3,3.5c-0.4,1.1-1.4,2-2.5,2.3C57.8,19,57,19.1,56.2,19.1"/>
				<path id="Path_394" class="st0" d="M40.6,10.5c-0.4-1.6-1.5-3-3-3.8c-2-1-4.4-1-6.4,0c-1.5,0.8-2.5,2.2-3,3.8
					c-0.5,1.9-0.2,4,0.8,5.7c0.7,1.2,1.9,2.1,3.2,2.5c0.7,0.2,1.5,0.4,2.2,0.4h0c0.8,0,1.5-0.1,2.2-0.4c1.3-0.4,2.4-1.3,3.2-2.5
					C40.9,14.5,41.1,12.5,40.6,10.5 M37.6,13.3c0,1-0.4,2-1,2.7c-1.1,1.2-3,1.2-4.2,0.1c0,0-0.1-0.1-0.1-0.1c-0.6-0.8-1-1.7-1-2.7
					c-0.1-1.6,0-3.3,1.1-4.4c1.2-1.1,3-1.1,4.1,0C37.6,10.1,37.7,11.7,37.6,13.3"/>
				<path id="Path_395" class="st0" d="M13.2,9.8V5c-1.7-0.1-3.3,0.6-4.3,2c-0.5,0.9-0.9,1.9-1,2.9c-0.1,0-0.2,0.1-0.4,0.1
					c-2.6,0.8-4.5,2.6-4.5,5c0,1.9,2,3.8,4.7,4.6V20h5.6v-0.5c2.8-0.8,4.7-2.7,4.7-4.6C18.1,12.4,16.1,10.5,13.2,9.8 M4.3,12.4H6
					c-0.4,0.6-0.6,1.2-0.7,1.9H3.5C3.6,13.6,3.9,12.9,4.3,12.4 M3.5,14.9c0-0.1,0-0.2,0-0.3h1.8c0,0.1,0,0.2,0,0.3
					c0,0.6,0.1,1.1,0.3,1.6H4C3.7,16.1,3.5,15.5,3.5,14.9 M7.8,19.2c-1.4-0.4-2.7-1.2-3.6-2.3h1.5C6.2,17.9,6.9,18.7,7.8,19.2
					L7.8,19.2z M7.8,18.8c-0.7-0.5-1.3-1.1-1.7-1.9h1.7L7.8,18.8z M7.8,16.5H5.9c-0.2-0.5-0.3-1.1-0.3-1.6c0-0.1,0-0.2,0-0.3h2.2
					L7.8,16.5z M7.8,14.3H5.7c0.1-0.7,0.4-1.3,0.7-1.9h1.4L7.8,14.3z M10.6,19.5c-1.6,0-2.2-2.2-2.2-4.9S9,9.8,10.6,9.8
					s2.2,2.2,2.2,4.9S12.2,19.5,10.6,19.5 M16.9,12.4c0.4,0.6,0.7,1.2,0.8,1.9H16c-0.1-0.7-0.3-1.3-0.7-1.9H16.9z M13.4,12.4h1.4
					c0.4,0.6,0.6,1.2,0.7,1.9h-2.2L13.4,12.4z M13.4,14.6h2.2c0,0.1,0,0.2,0,0.3c0,0.6-0.1,1.1-0.3,1.6h-1.9L13.4,14.6z M13.4,16.9
					h1.8c-0.4,0.8-1,1.5-1.8,1.9L13.4,16.9z M13.4,19.2c0.9-0.5,1.7-1.3,2.2-2.3h1.5C16.1,18,14.8,18.8,13.4,19.2 M15.7,16.5
					c0.2-0.5,0.3-1.1,0.3-1.6c0-0.1,0-0.2,0-0.3h1.8c0,0.1,0,0.2,0,0.3c0,0.6-0.2,1.2-0.5,1.6H15.7z"/>
				<path id="Path_396" class="st3" d="M10.8,6.3c-0.3,0-0.5,0.2-0.5,0.5s0.2,0.5,0.5,0.5s0.5-0.2,0.5-0.5S11.1,6.3,10.8,6.3
					C10.8,6.3,10.8,6.3,10.8,6.3 M10.8,6.9c-0.1,0-0.2-0.1-0.2-0.2s0.1-0.2,0.2-0.2c0.1,0,0.2,0.1,0.2,0.2c0,0,0,0,0,0
					C11,6.8,10.9,6.9,10.8,6.9L10.8,6.9"/>
			</g>
		</g>
	</g>
</g>
</svg>
