<?xml version="1.0" encoding="utf-8"?>
<!-- Generator: Adobe Illustrator 26.0.2, SVG Export Plug-In . SVG Version: 6.00 Build 0)  -->
<svg version="1.1" id="Layer_1" xmlns="http://www.w3.org/2000/svg" xmlns:xlink="http://www.w3.org/1999/xlink" x="0px" y="0px"
	 viewBox="0 0 89.4 17.8" style="enable-background:new 0 0 89.4 17.8;" xml:space="preserve">
<style type="text/css">
	.st0{clip-path:url(#SVGID_00000047769171440834769250000016081225600570765219_);}
	.st1{fill:#1E1E1E;}
</style>
<g>
	<defs>
		<rect id="SVGID_1_" width="89.4" height="17.8"/>
	</defs>
	<clipPath id="SVGID_00000057849201190891232870000009198243643100975243_">
		<use xlink:href="#SVGID_1_"  style="overflow:visible;"/>
	</clipPath>
	
		<g id="Group_662" transform="translate(0 0)" style="clip-path:url(#SVGID_00000057849201190891232870000009198243643100975243_);">
		<path id="Path_418" class="st1" d="M35.6,11.5c0-0.8-0.4-1.3-1.2-1.3h-2.1v2.7h2.1C35.2,12.9,35.6,12.4,35.6,11.5 M32.3,7.5h1.9
			c0.7,0,1.1-0.5,1.1-1.3c0-0.8-0.3-1.3-1.1-1.3h-1.9L32.3,7.5z M39.8,11.7c0,2.8-1.9,4.3-4.7,4.3h-7V1.9h6.7c3,0,4.5,1.7,4.5,3.9
			c0,1.1-0.6,2.2-1.6,2.8C39,9.1,39.8,10.4,39.8,11.7 M22.7,11.7c0,0.6-0.5,1.1-1.6,1.1c-1.1,0-1.6-0.5-1.6-1.1V1.9h-4.1V12
			c0,2.2,1.8,4.4,5.7,4.4c3.7,0,5.7-2.1,5.7-4.4V1.9h-4.2L22.7,11.7z M14.6,11.9c0.1,2-1.3,3.7-3.3,4C10.6,16,9.9,16,9.2,16l-4.9,0
			v1.9L0,14.3l4.3-3.6v1.9l5.5,0c0.5,0,0.7-0.3,0.7-0.6c0-0.6-0.5-0.8-2.1-1.5C6,9.4,4,8.5,4,5.8c0-2.1,1.5-3.6,3.8-3.9
			C8.4,1.8,9,1.8,9.6,1.8l4.3,0.1v3.4L8.7,5.2c-0.3,0-0.6,0.2-0.7,0.5c0,0,0,0,0,0.1c0,0.4,0.4,0.6,1.8,1.3
			C12.9,8.5,14.6,9.3,14.6,11.9"/>
		<path id="Path_419" class="st1" d="M66.4,8.7V6.2c0-0.7-0.5-1.2-1.6-1.2c-1.1,0-1.6,0.5-1.6,1.2v2.5H66.4z M70.5,5.9V16h-4.1v-4.1
			h-3.1V16h-4.1V5.9c0-2.5,2.1-4.5,5.7-4.5C68.4,1.5,70.5,3.4,70.5,5.9 M75.6,7.4V1.9h-4.1v6c0,2,1.4,3.5,3.6,4.1V16h4.2v-4.1
			c2.3-0.6,3.6-2.1,3.6-4.1V5.7c0-0.2,0.1-0.3,0.3-0.3c0,0,0.1,0,0.1,0h1.8v1.8l4.3-3.6L85.1,0v1.8h-2.9c-1.7-0.2-3.2,1-3.4,2.7
			c0,0.2,0,0.5,0,0.7v2.2c0,0.5-0.4,1.2-1.6,1.2C76,8.6,75.6,8,75.6,7.4 M53.7,1.9h4.1v10c0,2.3-1.6,4.4-5.1,4.4
			c-1.2,0-2.5-0.4-3.5-1.1c-0.9,0.7-2.1,1.1-3.3,1.1c-3.7,0-5.2-2.1-5.2-4.4v-10h4.1v9.9c0,0.4,0.2,0.9,1.2,0.9s1.2-0.5,1.2-0.9V1.9
			h4.1v9.9c0,0.4,0.2,0.9,1.2,0.9s1.2-0.5,1.2-0.9L53.7,1.9z"/>
		<path id="Path_420" class="st1" d="M81.6,16c-0.3,0-0.6-0.3-0.6-0.6s0.3-0.6,0.6-0.6s0.6,0.3,0.6,0.6C82.2,15.7,82,16,81.6,16
			 M81.6,14.6c-0.4,0-0.8,0.3-0.8,0.8c0,0.4,0.3,0.8,0.8,0.8s0.8-0.3,0.8-0.8c0,0,0,0,0,0C82.4,14.9,82,14.6,81.6,14.6 M81.7,15.3
			h-0.2v-0.2h0.2c0.1,0,0.1,0,0.1,0.1C81.8,15.2,81.8,15.3,81.7,15.3C81.7,15.3,81.7,15.3,81.7,15.3 M82,15.2c0-0.1-0.1-0.2-0.2-0.2
			h-0.4v0.7h0.1v-0.3h0.2c0.1,0,0.1,0,0.1,0.1v0.1h0.1v-0.2c0-0.1,0-0.1-0.1-0.1v0C81.9,15.3,82,15.3,82,15.2"/>
	</g>
</g>
</svg>
