<?xml version="1.0" encoding="utf-8"?>
<!-- Generator: Adobe Illustrator 26.0.2, SVG Export Plug-In . SVG Version: 6.00 Build 0)  -->
<svg version="1.1" id="Layer_1" xmlns="http://www.w3.org/2000/svg" xmlns:xlink="http://www.w3.org/1999/xlink" x="0px" y="0px"
	 viewBox="0 0 93.6 36.2" style="enable-background:new 0 0 93.6 36.2;" xml:space="preserve">
<style type="text/css">
	.st0{clip-path:url(#SVGID_00000133508171647140750610000017279415246762518661_);}
	.st1{fill:#1E1E1E;}
	.st2{fill:#161615;}
	.st3{fill:none;}
	.st4{fill:#FFFFFF;}
</style>
<g>
	<defs>
		<rect id="SVGID_1_" width="93.6" height="36.2"/>
	</defs>
	<clipPath id="SVGID_00000013163679152922656080000000596223861556390843_">
		<use xlink:href="#SVGID_1_"  style="overflow:visible;"/>
	</clipPath>
	<g id="Group_697" style="clip-path:url(#SVGID_00000013163679152922656080000000596223861556390843_);">
		<path id="Path_451" class="st1" d="M6,0c0,0-6,0-6,6v24.1c0,0,0,6,6,6h23.6c0,0,6,0,6-6V6c0,0,0-6-6-6H6z"/>
		<path id="Path_452" class="st2" d="M42,19.9h0.9v3.3l1.3-1.5h1.1l-1.5,1.7l1.6,2.3h-1.1l-1.4-2h0v2H42L42,19.9z"/>
		<path id="Path_453" class="st2" d="M45.5,23.6c0-1.3,0.6-2.1,1.8-2.1s1.8,0.8,1.8,2.1s-0.6,2.1-1.8,2.1S45.5,24.9,45.5,23.6
			 M47.3,25.1c0.7,0,0.8-0.7,0.8-1.4s-0.1-1.4-0.8-1.4s-0.8,0.7-0.8,1.4S46.6,25.1,47.3,25.1"/>
		<rect id="Rectangle_507" x="50" y="19.9" class="st2" width="0.9" height="5.8"/>
		<rect id="Rectangle_508" x="52.1" y="19.9" class="st2" width="0.9" height="5.8"/>
		<path id="Path_454" class="st2" d="M57,25.6c-0.4,0.1-0.7,0.2-1.1,0.2c-1.3,0-2-0.8-2-2.3c0-1.1,0.5-1.9,1.7-1.9
			c0.8-0.1,1.5,0.5,1.5,1.3c0,0.1,0,0.2,0,0.3v0.2h-2.4c0,0.9,0.6,1.6,1.5,1.7c0.3,0,0.5-0.1,0.8-0.2L57,25.6z M56.2,22.8
			c0-0.4-0.2-0.7-0.6-0.7c0,0-0.1,0-0.1,0c-0.4,0-0.7,0.3-0.8,0.7H56.2z"/>
		<path id="Path_455" class="st2" d="M58,19.9h0.9v3.3l1.3-1.5h1.1l-1.5,1.7l1.6,2.3h-1.1l-1.4-2h0v2H58L58,19.9z"/>
		<path id="Path_456" class="st2" d="M64.5,25.7c-0.3,0-0.5,0.1-0.8,0.1c-1.1,0-1.2-0.5-1.2-1.1v-2.3h-0.8v-0.6h0.8v-0.9l0.9-0.6
			v1.5h1.2v0.6h-1.2v1.9c0,0.5,0.1,0.9,0.6,0.9c0.1,0,0.3,0,0.4-0.1V25.7z"/>
		<path id="Path_457" class="st2" d="M65.3,19.9h0.9v0.9h-0.9V19.9z M65.3,21.7h0.9v4h-0.9V21.7z"/>
		<path id="Path_458" class="st2" d="M66.7,21.7h1l0.9,2.7h0l0.9-2.7h1l-1.4,4h-0.9L66.7,21.7z"/>
		<path id="Path_459" class="st2" d="M73.6,25.7c-0.3,0-0.5,0.1-0.8,0.1c-1.1,0-1.2-0.5-1.2-1.1v-2.3h-0.8v-0.6h0.8v-0.9l0.9-0.6
			v1.5h1.2v0.6h-1.2v1.9c0,0.5,0.1,0.9,0.6,0.9c0.1,0,0.3,0,0.4-0.1L73.6,25.7z"/>
		<path id="Path_460" class="st2" d="M74.3,21.7h0.9v0.7h0c0.2-0.5,0.7-0.9,1.3-0.8v1c-0.9,0-1.3,0.4-1.3,1.4v1.7h-0.9L74.3,21.7z"
			/>
		<path id="Path_461" class="st2" d="M79.1,25.2L79.1,25.2c-0.2,0.4-0.6,0.6-1.1,0.5c-0.6,0.1-1.1-0.4-1.2-0.9c0,0,0-0.1,0-0.1
			c0-1.3,1.7-1.3,2.2-1.3v-0.4c0-0.4-0.1-0.7-0.6-0.7c-0.3,0-0.6,0.2-0.6,0.5c0,0,0,0.1,0,0.1h-0.9c0-0.8,0.5-1.3,1.5-1.3
			c1,0,1.4,0.4,1.4,1.2v2.8h-0.9L79.1,25.2z M78.3,25.1c0.6,0,0.8-0.7,0.8-1.2c-0.6,0-1.3,0.2-1.3,0.7c0,0.2,0.2,0.5,0.4,0.5
			C78.2,25.1,78.3,25.1,78.3,25.1"/>
		<path id="Path_462" class="st2" d="M81.4,22.3h-0.7v-0.6h0.7v-0.5c0-0.8,0.5-1.3,1.5-1.3c0.3,0,0.6,0,0.9,0.1v0.7
			c-0.2-0.1-0.4-0.1-0.7-0.1c-0.7,0-0.8,0.5-0.8,1v0.3h1.2v0.6h-1.2v3.3h-0.9L81.4,22.3z M84.1,19.9H85v0.9h-0.9V19.9z M84.1,21.7
			H85v4h-0.9V21.7z"/>
		<path id="Path_463" class="st2" d="M86.1,19.9h0.9v3.3l1.3-1.5h1.1L88,23.4l1.6,2.3h-1.1l-1.4-2h0v2h-0.9L86.1,19.9z"/>
		<path id="Path_464" class="st2" d="M90.1,19.9h0.9v3.3l1.3-1.5h1.1L92,23.4l1.6,2.3h-1.1l-1.4-2h0v2h-0.9V19.9z"/>
		<line id="Line_168" class="st3" x1="0" y1="19.6" x2="0" y2="21.6"/>
		<line id="Line_169" class="st3" x1="0" y1="19.6" x2="0" y2="21.6"/>
		<path id="Path_465" class="st4" d="M35.2,3.5C35.1,3.3,35,3.1,35,3"/>
		<path id="Path_466" class="st3" d="M35.2,3.5C35.1,3.3,35,3.1,35,3"/>
		<line id="Line_170" class="st3" x1="35.7" y1="21.6" x2="35.7" y2="20.9"/>
		<line id="Line_171" class="st3" x1="35.7" y1="21.6" x2="35.7" y2="20.9"/>
		<path id="Path_467" class="st4" d="M0,21.6h35.7v-0.7c-1.9-0.5-4.4-1.2-7-2.2c-5.1-1.8-6.6-5-0.9-9.8c2.4-2,4.8-3.8,7.4-5.5L35,3
			L0,19.6V21.6z"/>
		<path id="Path_468" class="st3" d="M0,21.6h35.7v-0.7c-1.9-0.5-4.4-1.2-7-2.2c-5.1-1.8-6.6-5-0.9-9.8c2.4-2,4.8-3.8,7.4-5.5L35,3
			L0,19.6V21.6z"/>
		<path id="Path_469" class="st2" d="M41.3,12.8h0.6l1.1,3.1h0l1-3.1h0.6l-1.3,3.9h-0.6L41.3,12.8z"/>
		<path id="Path_470" class="st2" d="M47.9,16.7c-0.3,0.1-0.6,0.1-0.9,0.1c-1.2,0-1.9-0.7-1.9-2.2c0-1.2,0.5-1.9,1.5-1.9
			c0.7,0,1.3,0.5,1.4,1.3c0,0.1,0,0.2,0,0.2v0.2h-2.2v0.2c0,0.6,0.3,1.7,1.4,1.7c0.3,0,0.5,0,0.8-0.1L47.9,16.7z M47.3,13.9
			c0-0.4-0.3-0.7-0.7-0.7c0,0,0,0,0,0c-0.4,0-0.8,0.3-0.8,0.7H47.3z"/>
		<path id="Path_471" class="st2" d="M50.2,14.5c0.4,0.2,0.9,0.4,0.9,1.1c0,0.8-0.5,1.2-1.4,1.2c-0.4,0-0.7-0.1-1.1-0.2v-0.5
			c0.3,0.1,0.7,0.2,1,0.2c0.5,0,1-0.2,1-0.6c0-0.4-0.5-0.6-0.7-0.7l-0.4-0.2c-0.4-0.2-0.9-0.4-0.9-1.1s0.5-1,1.3-1
			c0.3,0,0.6,0,0.9,0.1v0.5c-0.3-0.1-0.6-0.2-0.9-0.2c-0.5,0-0.8,0.2-0.8,0.5c0,0.3,0.4,0.4,0.7,0.6L50.2,14.5z"/>
		<path id="Path_472" class="st2" d="M53.8,16.8c-0.2,0-0.3,0-0.5,0c-0.8,0-1.1-0.3-1.1-1v-2.5h-0.6v-0.5h0.6v-0.9l0.6-0.4v1.3h1
			v0.5h-1v2.4c0,0.3,0.2,0.6,0.5,0.7c0.1,0,0.1,0,0.2,0c0.1,0,0.3,0,0.4-0.1V16.8z"/>
		<path id="Path_473" class="st2" d="M54.9,13.3h-0.7v-0.5h0.7v-0.5c-0.1-0.6,0.4-1.2,1-1.2c0.1,0,0.2,0,0.3,0c0.2,0,0.4,0,0.7,0.1
			v0.5c-0.2-0.1-0.4-0.1-0.6-0.1c-0.6,0-0.8,0.4-0.8,0.9v0.4h1.1v0.5h-1.1v3.4h-0.6L54.9,13.3z"/>
		<path id="Path_474" class="st2" d="M57,14.8c0-1.1,0.4-2,1.6-2s1.6,0.9,1.6,2s-0.5,2-1.6,2S57,15.9,57,14.8 M58.6,16.3
			c0.6,0,1-0.6,1-1.6s-0.3-1.6-1-1.6s-1,0.6-1,1.6S58,16.3,58.6,16.3"/>
		<rect id="Rectangle_509" x="61.3" y="11.1" class="st2" width="0.6" height="5.7"/>
		<path id="Path_475" class="st2" d="M65.3,16.1L65.3,16.1c-0.2,0.4-0.6,0.8-1,0.8c-0.9,0-1.3-0.8-1.3-2c0-1,0.4-2.1,1.3-2.1
			c0.5,0,0.9,0.3,1,0.7h0v-2.4h0.6v5.6h-0.6L65.3,16.1z M64.4,16.3c0.6,0,0.9-0.9,0.9-1.6c0-0.9-0.3-1.6-0.9-1.6
			c-0.7,0-0.8,0.9-0.8,1.7C63.6,15.4,63.6,16.3,64.4,16.3"/>
	</g>
</g>
</svg>
