<?xml version="1.0" encoding="utf-8"?>
<!-- Generator: Adobe Illustrator 26.0.1, SVG Export Plug-In . SVG Version: 6.00 Build 0)  -->
<svg version="1.1" id="Layer_1" xmlns="http://www.w3.org/2000/svg" xmlns:xlink="http://www.w3.org/1999/xlink" x="0px" y="0px"
	 viewBox="0 0 185.2 76.9" style="enable-background:new 0 0 185.2 76.9;" xml:space="preserve">
<style type="text/css">
	.st0{fill:#79C4A9;}
</style>
<g>
	<path class="st0" d="M99.1,2.5c1.5,0.8,2.8,1.9,3.7,3.4c0,0,0,0.1,0.1,0.1c1,1.3,1.5,3,1.5,4.7c0,0.3,0.1,0.5,0.3,0.6
		c0.2,0.1,0.5,0.2,0.7,0.1c1.7-0.7,3.6-0.5,5,0.6c0.1,0.1,0.3,0.2,0.5,0.2c0.2,0,0.4-0.1,0.6-0.3c0.3-0.3,0.2-0.8-0.1-1.1
		c-1.6-1.3-3.6-1.7-5.6-1.2c-0.2-1.5-0.7-3-1.6-4.2c0-0.1,0-0.1-0.1-0.2c-1.1-1.7-2.6-3.2-4.5-4.1c-0.4-0.2-0.8,0-1,0.3
		C98.6,1.9,98.7,2.4,99.1,2.5z"/>
	<path class="st0" d="M113.1,15.2c-0.4,0-0.8,0.3-0.8,0.8c0,2.7-2.2,4.9-4.9,4.9H87.7h-0.3h-5.3c-0.8,0-1.5-0.1-2.2-0.4
		c-3.1-1.2-4.6-4.7-3.4-7.8s4.7-4.6,7.8-3.4c0.2,0.1,0.4,0.1,0.6,0c0.2-0.1,0.3-0.3,0.4-0.5c1.4-5.1,6.5-8.2,11.6-6.9
		c0.4,0.1,0.8-0.2,0.9-0.6c0.1-0.4-0.2-0.8-0.6-0.9C91.7-1,86,2.1,84.2,7.6c-3.7-1-7.6,0.9-9,4.5c-1.5,3.9,0.4,8.2,4.2,9.8
		c0.9,0.4,1.8,0.5,2.8,0.5h5.3h0.3h19.7c3.5,0,6.4-2.9,6.4-6.4C113.8,15.5,113.5,15.2,113.1,15.2z"/>
	<path class="st0" d="M24.4,40.3c1.5,0.8,2.8,1.9,3.7,3.4c0,0,0,0.1,0.1,0.1c1,1.3,1.5,3,1.5,4.7c0,0.3,0.1,0.5,0.3,0.6
		c0.2,0.1,0.5,0.2,0.7,0.1c1.7-0.7,3.6-0.5,5,0.6c0.1,0.1,0.3,0.2,0.5,0.2c0.2,0,0.4-0.1,0.6-0.3c0.3-0.3,0.2-0.8-0.1-1.1
		c-1.6-1.3-3.6-1.7-5.6-1.2c-0.2-1.5-0.7-3-1.6-4.2c0-0.1,0-0.1-0.1-0.2c-1.1-1.7-2.6-3.2-4.5-4.1c-0.4-0.2-0.8,0-1,0.3
		C23.9,39.6,24,40.1,24.4,40.3z"/>
	<path class="st0" d="M38.4,52.9c-0.4,0-0.8,0.3-0.8,0.8c0,2.7-2.2,4.9-4.9,4.9H13.1h-0.3H7.5c-0.8,0-1.5-0.1-2.2-0.4
		c-1.5-0.6-2.7-1.7-3.3-3.2s-0.7-3.1-0.1-4.6c1.2-3.1,4.7-4.6,7.8-3.4c0.2,0.1,0.4,0.1,0.6,0c0.2-0.1,0.3-0.3,0.4-0.5
		c1.4-5.1,6.5-8.2,11.6-6.9c0.4,0.1,0.8-0.2,0.9-0.6c0.1-0.4-0.2-0.8-0.6-0.9c-5.7-1.4-11.3,1.8-13.2,7.2c-3.7-1-7.6,0.9-9,4.5
		c-0.7,1.9-0.7,3.9,0.1,5.8c0.8,1.8,2.3,3.3,4.1,4c0.9,0.4,1.8,0.5,2.8,0.5h5.3h0.3h19.7c3.5,0,6.4-2.9,6.4-6.4
		C39.2,53.2,38.8,52.9,38.4,52.9z"/>
	<path class="st0" d="M170.4,57.1c1.5,0.8,2.8,1.9,3.7,3.4c0,0,0,0.1,0.1,0.1c1,1.3,1.5,3,1.5,4.7c0,0.3,0.1,0.5,0.3,0.6
		c0.2,0.1,0.5,0.2,0.7,0.1c1.7-0.7,3.6-0.5,5,0.6c0.1,0.1,0.3,0.2,0.5,0.2c0.2,0,0.4-0.1,0.6-0.3c0.3-0.3,0.2-0.8-0.1-1.1
		c-1.6-1.3-3.6-1.7-5.6-1.2c-0.2-1.5-0.7-3-1.6-4.2c0-0.1,0-0.1-0.1-0.2c-1.1-1.7-2.6-3.2-4.5-4.1c-0.4-0.2-0.8,0-1,0.3
		C169.9,56.4,170,56.9,170.4,57.1z"/>
	<path class="st0" d="M184.4,69.7c-0.4,0-0.8,0.3-0.8,0.8c0,2.7-2.2,4.9-4.9,4.9h-19.7h-0.3h-5.3c0,0,0,0,0,0
		c-0.8,0-1.5-0.1-2.2-0.4c-3.1-1.2-4.6-4.7-3.4-7.8c0.6-1.5,1.7-2.7,3.2-3.3c1.5-0.6,3.1-0.7,4.6-0.1c0.2,0.1,0.4,0.1,0.6,0
		c0.2-0.1,0.3-0.3,0.4-0.5c1.4-5.1,6.5-8.2,11.6-6.9c0.4,0.1,0.8-0.2,0.9-0.6s-0.2-0.8-0.6-0.9c-5.7-1.4-11.3,1.8-13.2,7.2
		c-1.6-0.5-3.4-0.3-5,0.3c-1.8,0.8-3.3,2.3-4,4.1c-1.5,3.9,0.4,8.2,4.2,9.8c0.9,0.4,1.8,0.5,2.8,0.5c0,0,0,0,0,0h5.3h0.3h19.7
		c3.5,0,6.4-2.9,6.4-6.4C185.2,70,184.8,69.7,184.4,69.7z"/>
</g>
</svg>
