<?xml version="1.0" encoding="utf-8"?>
<!-- Generator: Adobe Illustrator 26.0.2, SVG Export Plug-In . SVG Version: 6.00 Build 0)  -->
<svg version="1.1" id="Layer_1" xmlns="http://www.w3.org/2000/svg" xmlns:xlink="http://www.w3.org/1999/xlink" x="0px" y="0px"
	 viewBox="0 0 230 111.1" style="enable-background:new 0 0 230 111.1;" xml:space="preserve">
<style type="text/css">
	.st0{fill:#79C4A9;}
</style>
<g id="Group_715" transform="translate(55.731 -400.649)">
	<path class="st0" d="M79.8,423c-1,0-1.9-0.2-2.8-0.5c-1.9-0.7-3.3-2.2-4.1-4c-0.8-1.8-0.8-3.9-0.1-5.8c1.4-3.6,5.3-5.5,9-4.5
		c1.9-5.4,7.5-8.6,13.2-7.2c0.4,0.1,0.7,0.5,0.6,0.9c-0.1,0.4-0.5,0.7-0.9,0.6c-5.1-1.2-10.2,1.8-11.6,6.9c-0.1,0.2-0.2,0.4-0.4,0.5
		c-0.2,0.1-0.4,0.1-0.6,0c-3.1-1.2-6.6,0.3-7.8,3.4c-0.6,1.5-0.6,3.1,0.1,4.6c0.6,1.5,1.8,2.6,3.3,3.2c0.7,0.3,1.5,0.4,2.2,0.4
		c0,0,0,0,0,0h5.5c0.4,0,0.8,0.3,0.8,0.8s-0.3,0.8-0.8,0.8H79.8C79.8,423,79.8,423,79.8,423z"/>
	<path class="st0" d="M101.2,407.1c-0.3,0-0.5-0.1-0.6-0.4c-0.9-1.5-2.3-2.7-3.9-3.5c-0.4-0.2-0.5-0.6-0.3-1c0.2-0.4,0.6-0.5,1-0.3
		c1.8,0.9,3.4,2.3,4.5,4.1c0.2,0.4,0.1,0.8-0.2,1C101.5,407,101.3,407.1,101.2,407.1z"/>
	<path class="st0" d="M108.5,412.9c-0.2,0-0.3-0.1-0.5-0.2c-1.4-1.1-3.4-1.4-5-0.6c-0.2,0.1-0.5,0.1-0.7-0.1
		c-0.2-0.1-0.3-0.4-0.3-0.6c0-1.7-0.5-3.3-1.5-4.7c-0.2-0.3-0.2-0.8,0.2-1.1c0.3-0.2,0.8-0.2,1.1,0.2c1,1.3,1.6,2.9,1.7,4.5
		c1.9-0.5,4-0.1,5.6,1.2c0.3,0.3,0.4,0.7,0.1,1.1C109,412.8,108.8,412.9,108.5,412.9z"/>
	<path class="st0" d="M105,423h-20c-0.4,0-0.8-0.3-0.8-0.8s0.3-0.8,0.8-0.8h20c2.7,0,4.9-2.2,4.9-4.9c0-0.4,0.3-0.8,0.8-0.8
		s0.8,0.3,0.8,0.8C111.4,420.1,108.6,423,105,423z"/>
</g>
<g id="Group_717" transform="translate(-72.269 -359.24)">
	<path class="st0" d="M85.3,423h-5.5c-1,0-1.9-0.2-2.8-0.5c-1.9-0.7-3.3-2.2-4.1-4s-0.8-3.9-0.1-5.8c0.7-1.9,2.2-3.3,4-4.1
		c1.6-0.7,3.3-0.8,5-0.3c1.9-5.4,7.5-8.6,13.2-7.2c0.4,0.1,0.7,0.5,0.6,0.9c-0.1,0.4-0.5,0.7-0.9,0.6c-5.2-1.2-10.2,1.8-11.6,6.9
		c-0.1,0.2-0.2,0.4-0.4,0.5c-0.2,0.1-0.4,0.1-0.6,0c-1.5-0.6-3.1-0.6-4.6,0.1c-1.5,0.6-2.6,1.8-3.2,3.3s-0.6,3.1,0.1,4.6
		s1.8,2.6,3.3,3.2c0.7,0.3,1.5,0.4,2.2,0.4h5.5c0.4,0,0.8,0.3,0.8,0.8S85.8,423,85.3,423z"/>
	<path class="st0" d="M101.2,407.1c-0.3,0-0.5-0.1-0.6-0.4c-0.9-1.5-2.3-2.7-3.9-3.5c-0.4-0.2-0.5-0.6-0.3-1c0.2-0.4,0.6-0.5,1-0.3
		c1.8,0.9,3.4,2.3,4.5,4.1c0.2,0.4,0.1,0.8-0.2,1C101.5,407,101.3,407.1,101.2,407.1z"/>
	<path class="st0" d="M108.5,412.9c-0.2,0-0.3-0.1-0.5-0.2c-1.4-1.1-3.4-1.4-5-0.6c-0.2,0.1-0.5,0.1-0.7-0.1s-0.3-0.4-0.3-0.6
		c0-1.7-0.5-3.3-1.5-4.7c-0.2-0.3-0.2-0.8,0.2-1.1c0.3-0.2,0.8-0.2,1.1,0.2c1,1.3,1.6,2.9,1.7,4.5c1.9-0.5,4-0.1,5.6,1.2
		c0.3,0.3,0.4,0.7,0.1,1.1C109,412.8,108.8,412.9,108.5,412.9z"/>
	<path class="st0" d="M105,423h-20c-0.4,0-0.8-0.3-0.8-0.8s0.3-0.8,0.8-0.8h20c2.7,0,4.9-2.2,4.9-4.9c0-0.4,0.3-0.8,0.8-0.8
		s0.8,0.3,0.8,0.8C111.4,420.1,108.6,423,105,423z"/>
</g>
<g id="Group_716" transform="translate(118.565 -311.922)">
	<path class="st0" d="M85.3,423h-5.5c-1,0-1.9-0.2-2.8-0.5c-1.9-0.7-3.3-2.2-4.1-4c-0.8-1.8-0.8-3.9-0.1-5.8c0.7-1.9,2.2-3.3,4-4.1
		c1.6-0.7,3.3-0.8,5-0.3c1.9-5.4,7.5-8.6,13.2-7.2c0.4,0.1,0.7,0.5,0.6,0.9c-0.1,0.4-0.5,0.6-0.9,0.6c-5.1-1.2-10.2,1.8-11.6,6.9
		c-0.1,0.2-0.2,0.4-0.4,0.5c-0.2,0.1-0.4,0.1-0.6,0c-1.5-0.6-3.1-0.6-4.6,0.1c-1.5,0.6-2.6,1.8-3.2,3.3c-0.6,1.5-0.6,3.1,0.1,4.6
		c0.6,1.5,1.8,2.6,3.3,3.2c0.7,0.3,1.5,0.4,2.2,0.4h5.5c0.4,0,0.8,0.3,0.8,0.8S85.8,423,85.3,423z"/>
	<path class="st0" d="M101.2,407.1c-0.3,0-0.5-0.1-0.6-0.4c-0.9-1.5-2.3-2.7-3.9-3.5c-0.4-0.2-0.5-0.6-0.3-1c0.2-0.4,0.6-0.5,1-0.3
		c1.8,0.9,3.4,2.3,4.5,4.1c0.2,0.4,0.1,0.8-0.2,1C101.5,407,101.3,407.1,101.2,407.1z"/>
	<path class="st0" d="M108.5,412.9c-0.2,0-0.3-0.1-0.5-0.2c-1.4-1.1-3.4-1.4-5-0.6c-0.2,0.1-0.5,0.1-0.7-0.1
		c-0.2-0.1-0.3-0.4-0.3-0.6c0-1.7-0.5-3.3-1.5-4.7c-0.2-0.3-0.2-0.8,0.2-1.1c0.3-0.2,0.8-0.2,1.1,0.2c1,1.3,1.6,2.9,1.7,4.5
		c1.9-0.5,4-0.1,5.6,1.2c0.3,0.3,0.4,0.7,0.1,1.1C109,412.8,108.8,412.9,108.5,412.9z"/>
	<path class="st0" d="M105,423h-20c-0.4,0-0.8-0.3-0.8-0.8s0.3-0.8,0.8-0.8h20c2.7,0,4.9-2.2,4.9-4.9c0-0.4,0.3-0.8,0.8-0.8
		s0.8,0.3,0.8,0.8C111.4,420.1,108.6,423,105,423z"/>
</g>
</svg>
