<?xml version="1.0" encoding="utf-8"?>
<!-- Generator: Adobe Illustrator 26.0.2, SVG Export Plug-In . SVG Version: 6.00 Build 0)  -->
<svg version="1.1" id="Layer_1" xmlns="http://www.w3.org/2000/svg" xmlns:xlink="http://www.w3.org/1999/xlink" x="0px" y="0px"
	 viewBox="0 0 87.1 101.1" style="enable-background:new 0 0 87.1 101.1;" xml:space="preserve">
<style type="text/css">
	.st0{fill:#79C4A9;}
</style>
<rect x="51.2" class="st0" width="31.8" height="1.5"/>
<rect y="25.4" class="st0" width="52" height="1.5"/>
<rect x="81.6" class="st0" width="1.5" height="30.3"/>
<rect x="50.5" class="st0" width="1.5" height="26.9"/>
<path class="st0" d="M82.3,101.1c-2.6,0-4.8-2.1-4.8-4.8s2.1-4.8,4.8-4.8s4.8,2.1,4.8,4.8S84.9,101.1,82.3,101.1z M82.3,93.1
	c-1.8,0-3.3,1.5-3.3,3.3s1.5,3.3,3.3,3.3s3.3-1.5,3.3-3.3S84.1,93.1,82.3,93.1z"/>
<g id="Group_729" transform="translate(-102.65 -412.567)">
	<path class="st0" d="M182.6,454c-0.2,0-0.4-0.1-0.5-0.2c-0.3-0.3-0.3-0.8,0-1.1l4.8-4.8c0.3-0.3,0.8-0.3,1.1,0
		c0.3,0.3,0.3,0.8,0,1.1l-4.8,4.8C183,454,182.8,454,182.6,454z"/>
	<path class="st0" d="M187.4,454c-0.2,0-0.4-0.1-0.5-0.2L182,449c-0.3-0.3-0.3-0.8,0-1.1c0.3-0.3,0.8-0.3,1.1,0l4.8,4.8
		c0.3,0.3,0.3,0.8,0,1.1C187.8,454,187.6,454,187.4,454z"/>
</g>
<rect x="81.6" y="46.1" class="st0" width="1.5" height="46.2"/>
</svg>
