<?xml version="1.0" encoding="utf-8"?>
<!-- Generator: Adobe Illustrator 26.0.2, SVG Export Plug-In . SVG Version: 6.00 Build 0)  -->
<svg version="1.1" id="Layer_1" xmlns="http://www.w3.org/2000/svg" xmlns:xlink="http://www.w3.org/1999/xlink" x="0px" y="0px"
	 viewBox="0 0 145.6 121.4" style="enable-background:new 0 0 145.6 121.4;" xml:space="preserve">
<style type="text/css">
	.st0{fill:#79C4A9;}
</style>
<rect x="109.7" y="20.3" class="st0" width="31.8" height="1.5"/>
<rect x="0.8" y="45.4" class="st0" width="109.7" height="1.5"/>
<rect x="140.1" y="20.3" class="st0" width="1.5" height="30.3"/>
<rect x="109" y="20.3" class="st0" width="1.5" height="26.6"/>
<path class="st0" d="M140.8,121.4c-2.6,0-4.8-2.1-4.8-4.8s2.1-4.8,4.8-4.8s4.8,2.1,4.8,4.8S143.4,121.4,140.8,121.4z M140.8,113.4
	c-1.8,0-3.3,1.5-3.3,3.3c0,1.8,1.5,3.3,3.3,3.3s3.3-1.5,3.3-3.3C144.1,114.8,142.6,113.4,140.8,113.4z"/>
<g id="Group_1049" transform="translate(-43.9 -392.399)">
	<path class="st0" d="M182.3,454.2c-0.2,0-0.4-0.1-0.5-0.2c-0.3-0.3-0.3-0.8,0-1.1l4.8-4.8c0.3-0.3,0.8-0.3,1.1,0
		c0.3,0.3,0.3,0.8,0,1.1l-4.8,4.8C182.7,454.1,182.5,454.2,182.3,454.2z"/>
	<path class="st0" d="M187.1,454.2c-0.2,0-0.4-0.1-0.5-0.2l-4.8-4.8c-0.3-0.3-0.3-0.8,0-1.1c0.3-0.3,0.8-0.3,1.1,0l4.8,4.8
		c0.3,0.3,0.3,0.8,0,1.1C187.5,454.1,187.3,454.2,187.1,454.2z"/>
</g>
<rect x="140.1" y="66.4" class="st0" width="1.5" height="46.2"/>
<rect class="st0" width="1.5" height="46.9"/>
</svg>
