<?xml version="1.0" encoding="utf-8"?>
<!-- Generator: Adobe Illustrator 26.0.2, SVG Export Plug-In . SVG Version: 6.00 Build 0)  -->
<svg version="1.1" id="Layer_1" xmlns="http://www.w3.org/2000/svg" xmlns:xlink="http://www.w3.org/1999/xlink" x="0px" y="0px"
	 viewBox="0 0 771.8 439" style="enable-background:new 0 0 771.8 439;" xml:space="preserve">
<style type="text/css">
	.st0{fill:#ED818E;}
</style>
<g id="Group_8" transform="translate(0 0)">
	<path class="st0" d="M771.8,71.4v47.8c0,25.7,0,52.4,0,52.4v217.6c-32.5,29.4-87.5,11.1-127.6,12c-56.6,1.3-107.5,32.1-163.7,37
		c-40.6,3.7-81.3-6.6-119.5-19.2c-76.9-25.6-148.8-45.4-231.3-49.8C120.3,368.7,0,366.1,0,367.6v-91.3c0-5.5,0-8.9,0-8.9v-95.8l0,0
		V49.8c32.5-29.4,87.6-11.1,127.6-12c56.6-1.3,107.5-32.1,163.7-37c40.6-3.7,81.3,6.6,119.5,19.2c76.9,25.6,148.8,45.4,231.3,49.8
		C651.5,70.3,771.8,73,771.8,71.4z"/>
</g>
</svg>
