<?xml version="1.0" encoding="utf-8"?>
<!-- Generator: Adobe Illustrator 26.0.2, SVG Export Plug-In . SVG Version: 6.00 Build 0)  -->
<svg version="1.1" id="Layer_1" xmlns="http://www.w3.org/2000/svg" xmlns:xlink="http://www.w3.org/1999/xlink" x="0px" y="0px"
	 viewBox="0 0 771.8 411" style="enable-background:new 0 0 771.8 411;" xml:space="preserve">
<style type="text/css">
	.st0{fill:#ED818E;}
</style>
<g id="Group_8" transform="translate(0 0)">
	<path class="st0" d="M771.8,73l3,38.6c0,24.1,0,49.1,0,49.1c0,27,0,54,0,80.9c0,20.2,0,40.5,0,60.7c0,20.6,9.3,50.9-11.8,62.7
		c-41.2,22.8-99,6.2-145.5,13.3c-46.7,7.1-90.7,28.8-137.9,32.4c-51.1,3.9-101.1-13.8-150.3-28.2c-58.1-17.1-117.7-29.9-178.1-35.5
		C139.6,345.9,0,341.6,0,344.1v-85.5c0-5.1,0-8.3,0-8.3v-89.7v-114C87,20,117.7,33.1,157.7,32.3c56.6-1.2,77.4-27,133.6-31.6
		c40.6-3.5,81.3,6.2,119.5,18c70.5,22,123.2,50.8,195,58.7c11.4,1.2,22.9,1.5,34.3,1C699.9,75.4,771.8,74.3,771.8,73z"/>
</g>
</svg>
