<?xml version="1.0" encoding="utf-8"?>
<!-- Generator: Adobe Illustrator 26.0.2, SVG Export Plug-In . SVG Version: 6.00 Build 0)  -->
<svg version="1.1" id="Layer_1" xmlns="http://www.w3.org/2000/svg" xmlns:xlink="http://www.w3.org/1999/xlink" x="0px" y="0px"
	 viewBox="0 0 375 240.6" style="enable-background:new 0 0 375 240.6;" xml:space="preserve">
<style type="text/css">
	.st0{fill:#ED818E;}
</style>
<g id="Group_8" transform="translate(0 0)">
	<path class="st0" d="M375,39.1v26.2c0,14.1,0,28.7,0,28.7v119.2c-15.8,16.1-42.5,6.1-62,6.6c-27.5,0.7-52.2,17.6-79.5,20.3
		c-19.8,2-39.5-3.6-58.1-10.5c-37.3-14-72.2-24.9-112.4-27.3C58.4,202,0,200.6,0,201.4v-50c0-3,0-4.9,0-4.9V94h0V27.3
		c15.8-16.1,42.5-6.1,62-6.6c27.5-0.7,52.2-17.6,79.5-20.3C161.3-1.6,181,4,199.7,11c37.4,14,72.3,24.9,112.4,27.3
		C316.6,38.5,375,40,375,39.1z"/>
</g>
</svg>
