<?xml version="1.0" encoding="utf-8"?>
<!-- Generator: Adobe Illustrator 26.0.1, SVG Export Plug-In . SVG Version: 6.00 Build 0)  -->
<svg version="1.1" id="Layer_1" xmlns="http://www.w3.org/2000/svg" xmlns:xlink="http://www.w3.org/1999/xlink" x="0px" y="0px"
	 viewBox="0 0 108.4 149.9" style="enable-background:new 0 0 108.4 149.9;" xml:space="preserve">
<style type="text/css">
	.st0{fill:#ED818E;}
	.st1{fill:#79C4A9;}
	.st2{fill:#F7BA63;}
	.st3{fill:#E4B459;}
</style>
<path class="st0" d="M84,114.3c-3.2,0-5.7-2.6-5.7-5.7s2.6-5.7,5.7-5.7c3.2,0,5.7,2.6,5.7,5.7S87.2,114.3,84,114.3z M84,104.3
	c-2.3,0-4.2,1.9-4.2,4.2s1.9,4.2,4.2,4.2c2.3,0,4.2-1.9,4.2-4.2S86.4,104.3,84,104.3z"/>
<rect x="83.3" y="63.6" class="st0" width="1.5" height="40"/>
<rect x="52" class="st0" width="1.5" height="64.3"/>
<rect x="52" y="62.8" class="st0" width="32.8" height="1.5"/>
<path class="st0" d="M10.4,114.3c-3.2,0-5.7-2.6-5.7-5.7s2.6-5.7,5.7-5.7s5.7,2.6,5.7,5.7S13.5,114.3,10.4,114.3z M10.4,104.3
	c-2.3,0-4.2,1.9-4.2,4.2s1.9,4.2,4.2,4.2c2.3,0,4.2-1.9,4.2-4.2S12.7,104.3,10.4,104.3z"/>
<rect x="9.6" y="63.6" class="st0" width="1.5" height="40"/>
<rect x="40.9" class="st0" width="1.5" height="64.3"/>
<rect x="9.6" y="62.8" class="st0" width="32.8" height="1.5"/>
<rect x="36.6" y="75.5" class="st1" width="24.2" height="1.5"/>
<rect y="93.9" class="st1" width="38.1" height="1.5"/>
<rect x="59.3" y="75.6" class="st1" width="1.5" height="22.3"/>
<rect x="36.6" y="75.6" class="st1" width="1.5" height="19.8"/>
<path class="st1" d="M60.1,149.9c-2,0-3.7-1.7-3.7-3.7s1.7-3.7,3.7-3.7c2,0,3.7,1.7,3.7,3.7S62.1,149.9,60.1,149.9z M60.1,144
	c-1.2,0-2.2,1-2.2,2.2s1,2.2,2.2,2.2c1.2,0,2.2-1,2.2-2.2S61.3,144,60.1,144z"/>
<g id="Group_818" transform="translate(58.301 101.985)">
	<path class="st1" d="M0,4.3c-0.2,0-0.4-0.1-0.5-0.2c-0.3-0.3-0.3-0.8,0-1.1L3-0.5c0.3-0.3,0.8-0.3,1.1,0c0.3,0.3,0.3,0.8,0,1.1
		L0.5,4.1C0.4,4.2,0.2,4.3,0,4.3z"/>
	<path class="st1" d="M3.5,4.3C3.3,4.3,3.1,4.2,3,4.1l-3.5-3.5c-0.3-0.3-0.3-0.8,0-1.1c0.3-0.3,0.8-0.3,1.1,0L4.1,3
		c0.3,0.3,0.3,0.8,0,1.1C3.9,4.2,3.7,4.3,3.5,4.3z"/>
</g>
<rect x="59.3" y="109.5" class="st1" width="1.5" height="33.8"/>
<g id="Group_926" transform="translate(91.713 41.342)">
	<path id="Path_5" class="st2" d="M0,4.5c0.1-0.1,0.1-0.2,0.2-0.3c1.3-1.4,2.7-2.7,4-4c0.3-0.3,0.4-0.3,0.7,0S5.5,0.7,5.7,1
		c0.2,0.1,0.2,0.4,0.1,0.5c0,0-0.1,0.1-0.1,0.1c-1,1-1.9,1.9-2.9,2.9c0,0-0.1,0.1-0.1,0.1c0.1,0.1,0.1,0.1,0.1,0.1l2.9,2.9
		c0.3,0.3,0.3,0.4,0,0.7S5.2,8.8,4.9,9.1C4.8,9.2,4.6,9.3,4.4,9.2c0,0-0.1-0.1-0.1-0.1C2.9,7.7,1.5,6.3,0.2,4.9C0.1,4.9,0,4.8,0,4.7
		L0,4.5z"/>
	<path id="Path_6" class="st2" d="M14,4.6c0-0.1-0.1-0.1-0.1-0.1L11,1.6c-0.3-0.3-0.3-0.4,0-0.7c0.3-0.3,0.5-0.5,0.8-0.8
		C11.9,0,12.1,0,12.3,0.1c0,0,0.1,0.1,0.1,0.1c1.4,1.4,2.8,2.8,4.1,4.1c0.2,0.1,0.2,0.3,0.1,0.5c0,0-0.1,0.1-0.1,0.1
		c-1.4,1.4-2.8,2.8-4.1,4.2c-0.1,0.2-0.4,0.2-0.5,0.1c0,0-0.1-0.1-0.1-0.1c-0.3-0.3-0.5-0.5-0.8-0.8c-0.2-0.1-0.2-0.4-0.1-0.5
		c0,0,0.1-0.1,0.1-0.1c1-1,1.9-1.9,2.9-2.9C13.9,4.7,13.9,4.7,14,4.6"/>
</g>
<g id="Group_927" transform="translate(19.996 125.723)">
	<path id="Path_5-2" class="st2" d="M0,4C0.1,4,0.1,3.9,0.2,3.8c1.2-1.2,2.4-2.4,3.6-3.6c0.2-0.2,0.4-0.2,0.6,0s0.5,0.5,0.7,0.7
		C5.3,1,5.3,1.2,5.2,1.3c0,0-0.1,0.1-0.1,0.1C4.3,2.3,3.4,3.2,2.5,4c0,0-0.1,0.1-0.1,0.1c0.1,0.1,0.1,0.1,0.1,0.1l2.6,2.6
		c0.2,0.2,0.2,0.4,0,0.6S4.6,7.9,4.4,8.1C4.3,8.3,4.1,8.3,3.9,8.2c0,0-0.1-0.1-0.1-0.1C2.6,6.9,1.4,5.7,0.2,4.4C0.1,4.4,0,4.3,0,4.2
		L0,4z"/>
	<path id="Path_6-2" class="st2" d="M12.5,4.1c0,0-0.1-0.1-0.1-0.1L9.8,1.5c-0.2-0.2-0.2-0.4,0-0.6c0.2-0.2,0.5-0.5,0.7-0.7
		C10.6,0,10.9,0,11,0.1c0,0,0.1,0,0.1,0.1c1.2,1.2,2.5,2.5,3.7,3.7C14.9,4,15,4.2,14.9,4.3c0,0-0.1,0.1-0.1,0.1
		c-1.2,1.2-2.5,2.5-3.7,3.7c-0.1,0.1-0.3,0.2-0.5,0.1c0,0-0.1,0-0.1-0.1C10.3,7.9,10,7.6,9.8,7.4C9.6,7.3,9.6,7.1,9.7,6.9
		c0,0,0.1-0.1,0.1-0.1l2.6-2.6C12.4,4.2,12.5,4.2,12.5,4.1"/>
</g>
<g id="Group_928" transform="translate(17.2 47.76)">
	<path class="st3" d="M0,6.3c-0.2,0-0.4-0.1-0.5-0.2c-0.3-0.3-0.3-0.8,0-1.1l5.6-5.6c0.3-0.3,0.8-0.3,1.1,0c0.3,0.3,0.3,0.8,0,1.1
		L0.5,6.1C0.4,6.3,0.2,6.3,0,6.3z"/>
	<path class="st3" d="M5.6,6.3c-0.2,0-0.4-0.1-0.5-0.2l-5.6-5.6c-0.3-0.3-0.3-0.8,0-1.1c0.3-0.3,0.8-0.3,1.1,0l5.6,5.6
		c0.3,0.3,0.3,0.8,0,1.1C6,6.3,5.8,6.3,5.6,6.3z"/>
</g>
</svg>
