<svg id="Group_1082" data-name="Group 1082" xmlns="http://www.w3.org/2000/svg" xmlns:xlink="http://www.w3.org/1999/xlink" width="34.918" height="35.034" viewBox="0 0 34.918 35.034">
  <defs>
    <clipPath id="clip-path">
      <rect id="Rectangle_563" data-name="Rectangle 563" width="34.918" height="35.034" fill="#eaf0f6"/>
    </clipPath>
  </defs>
  <g id="Group_824" data-name="Group 824" clip-path="url(#clip-path)">
    <path id="Path_519" data-name="Path 519" d="M15.676,62.854c-3.308,0-6.616.008-9.925,0A5.64,5.64,0,0,1,0,57.122q0-9.947,0-19.894c.371-8.364,10.787-5.154,16.319-5.748a1.747,1.747,0,1,1,.148,3.489c-3.553.013-7.106,0-10.66,0a2.185,2.185,0,0,0-2.336,2.319q-.007,9.886,0,19.772a2.182,2.182,0,0,0,2.3,2.315q9.9.009,19.808,0a2.178,2.178,0,0,0,2.288-2.327q0-6.128,0-12.255a1.742,1.742,0,0,1,2.376-1.706,1.784,1.784,0,0,1,1.112,1.783c0,1.8,0,3.595,0,5.392,0,2.274.008,4.548,0,6.822-.318,8.178-10.26,5.264-15.691,5.767" transform="translate(0 -27.931)" fill="#eaf0f6"/>
    <path id="Path_520" data-name="Path 520" d="M142.5,3.548c-2.078,0-4.082.007-6.151,0a1.735,1.735,0,1,1-.006-3.467C151.316.4,148.126-2.772,148.45,12.187a1.734,1.734,0,1,1-3.466,0c-.009-2.066,0-4.071,0-6.144-4.808,4.74-9.539,9.534-14.32,14.3a1.8,1.8,0,0,1-1.8.61,1.73,1.73,0,0,1-.923-2.812c4.834-4.888,9.725-9.7,14.556-14.591" transform="translate(-113.611 0)" fill="#eaf0f6"/>
  </g>
</svg>
