<?xml version="1.0" encoding="utf-8"?>
<!-- Generator: Adobe Illustrator 26.0.2, SVG Export Plug-In . SVG Version: 6.00 Build 0)  -->
<svg version="1.1" id="Layer_1" xmlns="http://www.w3.org/2000/svg" xmlns:xlink="http://www.w3.org/1999/xlink" x="0px" y="0px"
	 viewBox="0 0 160.3 73.4" style="enable-background:new 0 0 160.3 73.4;" xml:space="preserve">
<style type="text/css">
	.st0{fill:#F0927E;}
	.st1{fill:#74CBAC;}
</style>
<g id="Group_931" transform="translate(89.698 0.752)">
	<path class="st0" d="M8.6,15.2H4.7c-0.7,0-1.4-0.1-2-0.4c-2.8-1.1-4.2-4.3-3.1-7.1c1-2.5,3.7-3.9,6.3-3.3c1.4-3.8,5.4-5.9,9.4-5
		C15.7-0.4,16,0,15.9,0.4S15.4,1,15,0.9c-3.5-0.8-6.9,1.2-7.8,4.6C7.1,5.8,7,6,6.8,6.1c-0.2,0.1-0.4,0.1-0.6,0
		C4.1,5.3,1.8,6.3,1,8.3c-0.8,2,0.2,4.3,2.2,5.1c0.5,0.2,1,0.3,1.5,0.3h3.9c0.4,0,0.8,0.3,0.8,0.8S9,15.2,8.6,15.2z"/>
	<path class="st0" d="M19.6,4.2c-0.3,0-0.5-0.1-0.6-0.4c-0.6-1-1.5-1.8-2.6-2.4c-0.4-0.2-0.5-0.6-0.3-1s0.6-0.5,1-0.3
		c1.3,0.7,2.4,1.7,3.2,2.9c0.2,0.4,0.1,0.8-0.2,1C19.9,4.1,19.7,4.2,19.6,4.2z"/>
	<path class="st0" d="M24.7,8.2c-0.2,0-0.3-0.1-0.5-0.2C23.3,7.3,22,7.1,21,7.6c-0.2,0.1-0.5,0.1-0.7-0.1c-0.2-0.1-0.3-0.4-0.3-0.6
		c0-1.1-0.3-2.2-1-3.1c-0.2-0.3-0.2-0.8,0.2-1c0.3-0.2,0.8-0.2,1,0.2c0.7,0.9,1.1,1.9,1.2,3c1.3-0.3,2.7,0.1,3.8,0.9
		c0.3,0.3,0.4,0.7,0.1,1.1C25.1,8.1,24.9,8.2,24.7,8.2z"/>
	<path class="st0" d="M22.2,15.2H8.4c-0.4,0-0.8-0.3-0.8-0.8s0.3-0.8,0.8-0.8h13.9c1.8,0,3.2-1.4,3.2-3.2c0-0.4,0.3-0.8,0.8-0.8
		s0.8,0.3,0.8,0.8C26.9,13.1,24.8,15.2,22.2,15.2z"/>
</g>
<g id="Group_932" transform="translate(0.752 29.527)">
	<path class="st0" d="M8.6,15.2H4.7c-0.7,0-1.4-0.1-2-0.4c-1.4-0.5-2.4-1.6-3-2.9s-0.6-2.8-0.1-4.2c0.5-1.4,1.6-2.4,2.9-3
		c1.1-0.5,2.3-0.6,3.4-0.3c1.4-3.8,5.4-5.9,9.4-5C15.7-0.4,16,0,15.9,0.4C15.8,0.8,15.4,1,15,0.9c-3.4-0.8-6.9,1.2-7.8,4.6
		C7.1,5.8,7,6,6.8,6.1c-0.2,0.1-0.4,0.1-0.6,0c-1-0.4-2.1-0.4-3,0C2.2,6.6,1.4,7.3,1,8.3s-0.4,2.1,0,3c0.4,1,1.2,1.7,2.2,2.1
		c0.5,0.2,1,0.3,1.5,0.3h3.9c0.4,0,0.8,0.3,0.8,0.8S9,15.2,8.6,15.2z"/>
	<path class="st0" d="M19.6,4.2c-0.3,0-0.5-0.1-0.6-0.4c-0.6-1-1.5-1.8-2.6-2.4c-0.4-0.2-0.5-0.6-0.3-1s0.6-0.5,1-0.3
		c1.3,0.7,2.4,1.7,3.2,2.9c0.2,0.4,0.1,0.8-0.2,1C19.9,4.1,19.7,4.2,19.6,4.2z"/>
	<path class="st0" d="M24.7,8.2c-0.2,0-0.3-0.1-0.5-0.2C23.3,7.3,22,7.1,21,7.6c-0.2,0.1-0.5,0.1-0.7-0.1c-0.2-0.1-0.3-0.4-0.3-0.6
		c0-1.1-0.3-2.2-1-3.1c-0.2-0.3-0.2-0.8,0.2-1.1c0.3-0.2,0.8-0.2,1.1,0.2c0.6,0.9,1.1,1.9,1.2,3c1.3-0.3,2.7,0.1,3.8,0.9
		c0.3,0.3,0.4,0.7,0.1,1.1C25.1,8.1,24.9,8.2,24.7,8.2z"/>
	<path class="st0" d="M22.2,15.2H8.4c-0.4,0-0.8-0.3-0.8-0.8s0.3-0.8,0.8-0.8h13.9c1.8,0,3.2-1.4,3.2-3.2c0-0.4,0.3-0.8,0.8-0.8
		s0.8,0.3,0.8,0.8C26.9,13.1,24.8,15.2,22.2,15.2z"/>
</g>
<g id="Group_933" transform="translate(133.361 58.191)">
	<path class="st0" d="M8.6,15.2H4.7c-0.7,0-1.4-0.1-2-0.4c-1.4-0.5-2.4-1.6-3-2.9c-0.6-1.3-0.6-2.8-0.1-4.2c0.5-1.4,1.6-2.4,2.9-3
		C3.6,4.3,4.8,4.2,6,4.5c1.4-3.7,5.4-5.9,9.4-5C15.7-0.4,16,0,15.9,0.4S15.4,1,15,0.9c-3.4-0.8-6.9,1.3-7.8,4.6C7.1,5.8,7,6,6.8,6.1
		c-0.2,0.1-0.4,0.1-0.6,0C4.1,5.3,1.8,6.3,1,8.3c-0.4,1-0.4,2.1,0,3s1.2,1.7,2.2,2.1c0.5,0.2,1,0.3,1.5,0.3h3.9
		c0.4,0,0.8,0.3,0.8,0.8S9,15.2,8.6,15.2z"/>
	<path class="st0" d="M19.6,4.2c-0.3,0-0.5-0.1-0.6-0.4c-0.6-1-1.5-1.8-2.6-2.4c-0.4-0.2-0.5-0.6-0.3-1c0.2-0.4,0.6-0.5,1-0.3
		c1.3,0.7,2.4,1.7,3.2,2.9c0.2,0.4,0.1,0.8-0.2,1C19.9,4.1,19.7,4.2,19.6,4.2z"/>
	<path class="st0" d="M24.7,8.2c-0.2,0-0.3-0.1-0.5-0.2C23.3,7.3,22,7.1,21,7.6c-0.2,0.1-0.5,0.1-0.7-0.1c-0.2-0.1-0.3-0.4-0.3-0.6
		c0-1.1-0.3-2.2-1-3.1c-0.2-0.3-0.2-0.8,0.2-1.1c0.3-0.2,0.8-0.2,1.1,0.2c0.6,0.9,1.1,1.9,1.2,3c1.3-0.3,2.7,0.1,3.8,0.9
		c0.3,0.3,0.4,0.7,0.1,1.1C25.1,8.1,24.9,8.2,24.7,8.2z"/>
	<path class="st0" d="M22.2,15.2H8.4c-0.4,0-0.8-0.3-0.8-0.8s0.3-0.8,0.8-0.8h13.9c1.8,0,3.2-1.4,3.2-3.2c0-0.4,0.3-0.8,0.8-0.8
		s0.8,0.3,0.8,0.8C26.9,13.1,24.8,15.2,22.2,15.2z"/>
</g>
<g id="Group_926" transform="translate(70.816 53.659)">
	<path id="Path_5" class="st1" d="M0,4.3C0.1,4.2,0.1,4.1,0.2,4C1.5,2.8,2.8,1.5,4,0.2c0.2-0.2,0.4-0.3,0.7,0s0.5,0.5,0.7,0.7
		C5.6,1,5.6,1.3,5.5,1.4c0,0-0.1,0.1-0.1,0.1C4.5,2.4,3.6,3.3,2.7,4.3c0,0-0.1,0.1-0.1,0.1c0.1,0.1,0.1,0.1,0.1,0.1l2.7,2.7
		c0.3,0.3,0.3,0.4,0,0.7S4.9,8.4,4.7,8.6C4.5,8.8,4.3,8.8,4.2,8.7c0,0-0.1-0.1-0.1-0.1C2.8,7.3,1.5,6,0.2,4.7C0.1,4.6,0,4.6,0,4.5
		L0,4.3z"/>
	<path id="Path_6" class="st1" d="M13.2,4.4c0,0-0.1-0.1-0.1-0.1l-2.7-2.7c-0.3-0.3-0.3-0.4,0-0.7c0.2-0.2,0.5-0.5,0.7-0.7
		C11.3,0,11.5,0,11.7,0.1c0,0,0.1,0.1,0.1,0.1c1.3,1.3,2.6,2.6,3.9,3.9c0.2,0.1,0.2,0.3,0.1,0.5c0,0-0.1,0.1-0.1,0.1
		C14.4,6,13,7.3,11.7,8.6c-0.1,0.2-0.3,0.2-0.5,0.1c0,0-0.1-0.1-0.1-0.1c-0.3-0.3-0.5-0.5-0.8-0.8c-0.2-0.1-0.2-0.3-0.1-0.5
		c0,0,0.1-0.1,0.1-0.1l2.7-2.7C13.2,4.5,13.2,4.4,13.2,4.4"/>
</g>
</svg>
