<?xml version="1.0" encoding="utf-8"?>
<!-- Generator: Adobe Illustrator 26.0.2, SVG Export Plug-In . SVG Version: 6.00 Build 0)  -->
<svg version="1.1" id="Layer_1" xmlns="http://www.w3.org/2000/svg" xmlns:xlink="http://www.w3.org/1999/xlink" x="0px" y="0px"
	 viewBox="0 0 474 290" style="enable-background:new 0 0 474 290;" xml:space="preserve">
<style type="text/css">
	.st0{fill:#F0927E;}
</style>
<g id="Group_8" transform="translate(0 0)">
	<path class="st0" d="M474,42.7v1.4c0,9.1,0,58.5,0,58.5v157.5c-20,17.6-53.7,6.7-78.4,7.2c-34.8,0.8-66,19.2-100.5,22.2
		c-25,2.2-49.9-3.9-73.4-11.6c-47.1-15.3-91.3-27.2-142.1-29.8c-5.8-0.2-79.6-1.7-79.6-0.9v-8.6c0-16.6,0-51.3,0-51.3v-84.6l0,0
		V29.8c20-17.6,53.7-6.7,78.4-7.2c34.8-0.8,66-19.2,100.5-22.2c25-2.2,49.9,3.9,73.6,11.6c47.3,15.3,91.4,27.2,142.1,29.8
		C400.2,42.1,474,43.7,474,42.7z"/>
</g>
</svg>
