<?xml version="1.0" encoding="utf-8"?>
<!-- Generator: Adobe Illustrator 26.0.2, SVG Export Plug-In . SVG Version: 6.00 Build 0)  -->
<svg version="1.1" id="Layer_1" xmlns="http://www.w3.org/2000/svg" xmlns:xlink="http://www.w3.org/1999/xlink" x="0px" y="0px"
	 viewBox="0 0 768.2 383.8" style="enable-background:new 0 0 768.2 383.8;" xml:space="preserve">
<style type="text/css">
	.st0{fill:#F0927E;}
</style>
<g id="Group_8" transform="translate(0 0)">
	<path class="st0" d="M768.2,62.9v7.5c0,10.3,0,47,0,47s0,178.2,0,179.8c0,12.4-113.6,14.1-125.2,15c-53.5,4.2-106.9,10-160.5,12.2
		c-22.5,0.9-45,1.2-67.5,0.5c-104.6-3.4-206.9-34.2-311.9-27.5c-13.2,0.8-26.3,2.3-39.3,4.4c-12.6,2.1-25.4,4.7-37.6,8.5
		c-5,1.5-20,5.6-26.1,5.6c0-11,0-26.9,0-34.3c0-18.9,0-67.6,0-67.6s0-96.6,0-96.6c0-8,0-16.1,0-24.1c0-5.7-10.9-10.1-10.3-15.7
		c0.9-9,10.7-9.7,20.5-12.4c31.1-8.6,63.1-13.6,95-17.6c30-3.7,60.6-3.2,90-11.2c30.9-8.4,58.9-25.7,90.1-32.6
		c36-8,73.4-1.8,109.6,5.4c81.2,16.3,155.7,67.5,237.3,51.1C705.7,45.7,768.2,64,768.2,62.9z"/>
</g>
<g id="Group_8_00000098204497886620094310000010304398298258515597_" transform="translate(0 0)">
	<path class="st0" d="M768.2,325.3c-45.9,9.7-108.1,16.3-154,25.5c-47.7,9.6-90.2,28.9-137.1,32.4c-50.8,3.9-100.5-13.8-149.5-28.2
		c-57.8-17.1-116.9-32-177.1-35.5c-43-2.5-112.7,3.7-150.5,3.9c-8.6,0-3.6-14.5-2.6-23L0,278.8h788.1
		C788.6,298,790.3,320.6,768.2,325.3z"/>
</g>
</svg>
