<svg xmlns="http://www.w3.org/2000/svg" xmlns:xlink="http://www.w3.org/1999/xlink" width="33.6" height="33.608" viewBox="0 0 33.6 33.608">
  <defs>
    <clipPath id="clip-path">
      <rect id="Rectangle_425" data-name="Rectangle 425" width="33.6" height="33.608" fill="#eaf0f6"/>
    </clipPath>
  </defs>
  <g id="Group_1081" data-name="Group 1081" transform="translate(0 0)">
    <g id="Group_617" data-name="Group 617" transform="translate(0 0)" clip-path="url(#clip-path)">
      <path id="Path_366" data-name="Path 366" d="M38.764,4.46a2.912,2.912,0,0,1-.263.354q-3.794,3.8-7.592,7.6a1.433,1.433,0,0,1-1.051.516,1.294,1.294,0,0,1-.99-2.144c.087-.1.185-.195.28-.29Q32.9,6.74,36.66,2.986a1.065,1.065,0,0,0,.3-.372c-.109-.009-.218-.025-.327-.025q-2.039,0-4.078,0a1.289,1.289,0,0,1-1.419-1.3A1.279,1.279,0,0,1,32.536,0q3.775,0,7.55,0a1.276,1.276,0,0,1,1.388,1.372q0,3.8,0,7.593a1.293,1.293,0,1,1-2.582.008q0-2.182,0-4.362a.286.286,0,0,0-.02-.075l-.1-.081" transform="translate(-7.877 -0.001)" fill="#eaf0f6"/>
      <path id="Path_367" data-name="Path 367" d="M2.586,37.04c.168-.158.274-.252.375-.353l7.653-7.653a1.3,1.3,0,0,1,2.035,1.622,5.544,5.544,0,0,1-.419.437L4.75,38.577c-.083.083-.16.171-.3.323h.458q2.039,0,4.078,0A1.292,1.292,0,1,1,9,41.484q-3.836,0-7.671,0A1.262,1.262,0,0,1,0,40.166Q0,36.308,0,32.452a1.262,1.262,0,0,1,1.29-1.305,1.268,1.268,0,0,1,1.29,1.308c.005,1.373,0,2.746,0,4.119v.466" transform="translate(0 -7.879)" fill="#eaf0f6"/>
      <path id="Path_368" data-name="Path 368" d="M38.9,37.065v-.5c0-1.387-.007-2.774,0-4.16a1.289,1.289,0,0,1,2.577-.014q.011,3.938,0,7.876a1.239,1.239,0,0,1-1.211,1.218q-3.958.014-7.915,0a1.289,1.289,0,0,1,.041-2.575c1.373-.009,2.747,0,4.119,0h.523c-.145-.156-.236-.261-.334-.36q-3.84-3.842-7.679-7.684a1.3,1.3,0,1,1,1.83-1.845q1.793,1.806,3.6,3.6c1.454,1.456,2.91,2.913,4.45,4.453" transform="translate(-7.882 -7.881)" fill="#eaf0f6"/>
      <path id="Path_369" data-name="Path 369" d="M2.585,4.534v.392c0,1.386.006,2.773,0,4.159a1.261,1.261,0,0,1-1.3,1.256A1.262,1.262,0,0,1,0,9.1q-.011-3.938,0-7.876A1.236,1.236,0,0,1,1.214.007q3.957-.014,7.915,0a1.258,1.258,0,0,1,1.209,1.3A1.261,1.261,0,0,1,9.094,2.583c-1.373.01-2.746,0-4.119,0H4.452c.145.156.236.262.334.36l7.537,7.54c.72.72.8,1.5.214,2.076s-1.339.476-2.047-.232Q6.736,8.575,2.982,4.818c-.1-.1-.188-.229-.281-.344l-.116.059" transform="translate(0 0)" fill="#eaf0f6"/>
    </g>
  </g>
</svg>
