<?xml version="1.0" encoding="utf-8"?>
<!-- Generator: Adobe Illustrator 26.0.2, SVG Export Plug-In . SVG Version: 6.00 Build 0)  -->
<svg version="1.1" id="Layer_1" xmlns="http://www.w3.org/2000/svg" xmlns:xlink="http://www.w3.org/1999/xlink" x="0px" y="0px"
	 viewBox="0 0 35.8 101.1" style="enable-background:new 0 0 35.8 101.1;" xml:space="preserve">
<style type="text/css">
	.st0{fill:#79C4A9;}
</style>
<rect class="st0" width="31.8" height="1.5"/>
<rect x="30.3" class="st0" width="1.5" height="30.3"/>
<path class="st0" d="M31.1,101.1c-2.6,0-4.8-2.1-4.8-4.8s2.1-4.8,4.8-4.8s4.8,2.1,4.8,4.8S33.7,101.1,31.1,101.1z M31.1,93.1
	c-1.8,0-3.3,1.5-3.3,3.3s1.5,3.3,3.3,3.3s3.3-1.5,3.3-3.3S32.9,93.1,31.1,93.1z"/>
<g id="Group_1049" transform="translate(-153.65 -412.567)">
	<path class="st0" d="M182.3,454c-0.2,0-0.4-0.1-0.5-0.2c-0.3-0.3-0.3-0.8,0-1.1l4.8-4.8c0.3-0.3,0.8-0.3,1.1,0
		c0.3,0.3,0.3,0.8,0,1.1l-4.8,4.8C182.7,454,182.5,454,182.3,454z"/>
	<path class="st0" d="M187.1,454c-0.2,0-0.4-0.1-0.5-0.2l-4.8-4.8c-0.3-0.3-0.3-0.8,0-1.1c0.3-0.3,0.8-0.3,1.1,0l4.8,4.8
		c0.3,0.3,0.3,0.8,0,1.1C187.5,454,187.3,454,187.1,454z"/>
</g>
<rect x="30.3" y="46.1" class="st0" width="1.5" height="46.2"/>
</svg>
