<?xml version="1.0" encoding="utf-8"?>
<!-- Generator: Adobe Illustrator 26.0.2, SVG Export Plug-In . SVG Version: 6.00 Build 0)  -->
<svg version="1.1" id="Layer_1" xmlns="http://www.w3.org/2000/svg" xmlns:xlink="http://www.w3.org/1999/xlink" x="0px" y="0px"
	 viewBox="0 0 70.1 91.8" style="enable-background:new 0 0 70.1 91.8;" xml:space="preserve">
<style type="text/css">
	.st0{fill:#F0927E;}
</style>
<g>
	<g>
		<path class="st0" d="M4.8,91.8c-2.6,0-4.8-2.1-4.8-4.8s2.1-4.8,4.8-4.8s4.8,2.1,4.8,4.8S7.4,91.8,4.8,91.8z M4.8,83.8
			c-1.8,0-3.3,1.5-3.3,3.3s1.5,3.3,3.3,3.3S8,88.9,8,87.1S6.6,83.8,4.8,83.8z"/>
		<rect x="4" y="50.6" class="st0" width="1.5" height="32.1"/>
		<rect x="29.5" y="0" class="st0" width="1.5" height="52"/>
		<rect x="4" y="50.5" class="st0" width="27" height="1.5"/>
	</g>
	<g>
		<path class="st0" d="M60.6,87.1c0-2.6,2.1-4.8,4.8-4.8s4.8,2.1,4.8,4.8s-2.1,4.8-4.8,4.8S60.6,89.7,60.6,87.1z M62.1,87.1
			c0,1.8,1.5,3.3,3.3,3.3s3.3-1.5,3.3-3.3s-1.5-3.3-3.3-3.3S62.1,85.3,62.1,87.1z"/>
		<rect x="64.6" y="50.6" class="st0" width="1.5" height="32.1"/>
		<rect x="39.1" y="0" class="st0" width="1.5" height="52"/>
		<rect x="39.1" y="50.5" class="st0" width="27" height="1.5"/>
	</g>
</g>
</svg>
