<?xml version="1.0" encoding="utf-8"?>
<!-- Generator: Adobe Illustrator 26.0.1, SVG Export Plug-In . SVG Version: 6.00 Build 0)  -->
<svg version="1.1" id="Layer_1" xmlns="http://www.w3.org/2000/svg" xmlns:xlink="http://www.w3.org/1999/xlink" x="0px" y="0px"
	 viewBox="0 0 30 33" style="enable-background:new 0 0 30 33;" xml:space="preserve">
<style type="text/css">
	.st0{fill:#ED818E;}
</style>
<g>
	<path class="st0" d="M15.1,12.9C15.1,12.9,15.1,12.9,15.1,12.9c0.9,0,1.5-0.7,1.5-1.5s-0.7-1.5-1.5-1.5c-0.8,0-1.5,0.7-1.5,1.5
		C13.5,12.2,14.2,12.9,15.1,12.9z"/>
	<path class="st0" d="M17.1,20.6c-0.3,0-0.7,0-1,0v-0.3c0-1.6,0-3.2,0-4.8c0-0.5-0.3-0.9-0.8-1c-0.8,0-1.6,0-2.4,0
		C12.3,14.5,12,15,12,15.5c0,0,0,0,0,0.1c0.1,0.5,0.5,0.9,1,0.8c0.3,0,0.6,0,1,0v0.3c0,1.6,0,3.2,0,4.8c0,0.6,0.4,1,0.9,1
		c0,0,0,0,0,0c0.7,0,1.4,0,2.1,0c0.6,0,1-0.5,1-1C18.1,21,17.7,20.5,17.1,20.6z"/>
	<path class="st0" d="M26,0H4C1.8,0,0,1.8,0,4v25c0,2.2,1.8,4,4,4h22c2.2,0,4-1.8,4-4V4C30,1.8,28.2,0,26,0z M15.1,26.2
		c-5.4,0-9.8-4.4-9.8-9.7c0-5.4,4.4-9.8,9.7-9.8c5.4,0,9.7,4.4,9.8,9.7C24.8,21.8,20.5,26.2,15.1,26.2z"/>
</g>
</svg>
