<?xml version="1.0" encoding="utf-8"?>
<!-- Generator: Adobe Illustrator 26.0.1, SVG Export Plug-In . SVG Version: 6.00 Build 0)  -->
<svg version="1.1" id="Layer_1" xmlns="http://www.w3.org/2000/svg" xmlns:xlink="http://www.w3.org/1999/xlink" x="0px" y="0px"
	 viewBox="0 0 30 33" style="enable-background:new 0 0 30 33;" xml:space="preserve">
<style type="text/css">
	.st0{fill:#7DC5AC;}
</style>
<g>
	<path class="st0" d="M26,0H4C1.8,0,0,1.8,0,4v25c0,2.2,1.8,4,4,4h22c2.2,0,4-1.8,4-4V4C30,1.8,28.2,0,26,0z M11.7,21
		c-0.3,0.3-0.6,0.6-1,1c-0.1,0.2-0.4,0.3-0.6,0.1c0,0-0.1-0.1-0.1-0.1c-1.7-1.7-3.4-3.4-5.1-5.1c-0.1-0.1-0.1-0.2-0.2-0.3l0-0.3
		c0.1-0.1,0.2-0.2,0.3-0.3c1.7-1.7,3.3-3.3,5-5c0.3-0.3,0.5-0.3,0.8,0s0.6,0.6,0.9,0.9c0.2,0.1,0.3,0.4,0.1,0.7
		c0,0.1-0.1,0.1-0.1,0.1c-1.2,1.2-2.4,2.4-3.5,3.5c-0.1,0.1-0.1,0.1-0.2,0.2c0.1,0.1,0.1,0.1,0.2,0.2l3.5,3.5
		C12,20.5,12,20.7,11.7,21z M25.2,16.7c0,0-0.1,0.1-0.1,0.1c-1.7,1.7-3.4,3.4-5.1,5.1c-0.1,0.2-0.4,0.3-0.6,0.1c0,0-0.1-0.1-0.1-0.1
		c-0.3-0.3-0.7-0.7-1-1c-0.2-0.1-0.3-0.4-0.1-0.7c0-0.1,0.1-0.1,0.1-0.1c1.2-1.2,2.4-2.4,3.6-3.6c0.1-0.1,0.1-0.1,0.2-0.2h0
		c-0.1-0.1-0.1-0.1-0.2-0.2l-3.5-3.5c-0.3-0.3-0.3-0.5,0-0.9c0.3-0.3,0.6-0.6,0.9-0.9c0.2-0.2,0.4-0.3,0.7-0.1c0,0,0.1,0.1,0.1,0.1
		c1.7,1.7,3.4,3.4,5.1,5.1C25.3,16.2,25.3,16.5,25.2,16.7z"/>
</g>
</svg>
