<?xml version="1.0" encoding="utf-8"?>
<!-- Generator: Adobe Illustrator 26.0.1, SVG Export Plug-In . SVG Version: 6.00 Build 0)  -->
<svg version="1.1" id="Layer_1" xmlns="http://www.w3.org/2000/svg" xmlns:xlink="http://www.w3.org/1999/xlink" x="0px" y="0px"
	 viewBox="0 0 31 33" style="enable-background:new 0 0 31 33;" xml:space="preserve">
<style type="text/css">
	.st0{fill:#E4B459;}
</style>
<path class="st0" d="M27,0H4C1.8,0,0,1.8,0,4v25c0,2.2,1.8,4,4,4h23c2.2,0,4-1.8,4-4V4C31,1.8,29.2,0,27,0z M17.8,26.4l-4.6,0
	c0-0.7,0-1.5,0-2.2c0,0,0-0.1,0-0.1h4.6V26.4z M16.1,15.4V12c0.1,0.1,0.1,0.1,0.1,0.1c0.5,0.7,0.9,1.3,1.4,2c0.1,0.1,0.1,0.2,0,0.3
	c-0.4,0.7-0.8,1.3-1.2,2c0,0.1-0.1,0.1-0.2,0.1c-0.5,0-0.9,0-1.4,0c-0.1,0-0.2,0-0.2-0.1c-0.4-0.7-0.8-1.3-1.2-2c0-0.1,0-0.1,0-0.2
	c0.5-0.7,1-1.4,1.6-2.2v3.4H16.1z M13.8,18.3c0-0.3,0.3-0.6,0.6-0.5c0,0,0,0,0,0c0.4,0,0.8,0,1.2,0l0,0c0.4,0,0.7,0,1.1,0
	c0.3,0,0.6,0.2,0.6,0.5c0,0,0,0,0,0c0,0.3-0.2,0.6-0.5,0.6c0,0,0,0-0.1,0c-0.8,0-1.5,0-2.3,0C14.1,18.9,13.8,18.6,13.8,18.3
	C13.8,18.3,13.8,18.3,13.8,18.3z M16.1,20v2.9H15V20H16.1z M19.3,20.8C19.1,20.9,19,21,19,21.2c0,0.5,0,1,0,1.5c0,0.1,0,0.1,0,0.2
	l0,0h-1.7c0-0.1,0-0.1,0-0.2c0-0.9,0-1.8,0-2.7c0-0.1,0-0.2,0.1-0.2c0.9-0.4,1.3-1.4,0.9-2.3c-0.1-0.3-0.4-0.6-0.7-0.8c0,0,0,0,0,0
	c0-0.1,0.1-0.1,0.1-0.2c0.5-0.8,0.9-1.5,1.4-2.3c0-0.1,0.1-0.1,0-0.2c-1.2-1.6-2.3-3.2-3.5-4.8c0,0,0,0-0.1-0.1
	c0,0.1-0.1,0.1-0.1,0.1c-1.1,1.6-2.2,3.1-3.4,4.7c-0.1,0.1-0.1,0.2,0,0.3c0.5,0.7,0.9,1.5,1.3,2.2l0.1,0.2c-0.4,0.2-0.6,0.6-0.8,1
	c-0.3,0.8,0.1,1.7,0.9,2.1c0.1,0,0.2,0.1,0.2,0.2c0,1,0,1.9,0,2.9h-1.7c0-0.1,0-0.1,0-0.2c0-0.5,0-1.1,0-1.6c0-0.1-0.1-0.2-0.2-0.3
	c-2-1.1-3.4-3-3.8-5.2c-0.8-4.1,2-8,6-8.8c4.1-0.8,8,2,8.8,6C23.5,16,22,19.2,19.3,20.8z"/>
</svg>
