<?xml version="1.0" encoding="utf-8"?>
<!-- Generator: Adobe Illustrator 26.0.1, SVG Export Plug-In . SVG Version: 6.00 Build 0)  -->
<svg version="1.1" id="Layer_1" xmlns="http://www.w3.org/2000/svg" xmlns:xlink="http://www.w3.org/1999/xlink" x="0px" y="0px"
	 viewBox="0 0 102.8 38.4" style="enable-background:new 0 0 102.8 38.4;" xml:space="preserve">
<style type="text/css">
	.st0{fill:#FFFFFF;}
	.st1{fill:#F7BA63;}
</style>
<g id="Group_997" transform="translate(-116 -1692)">
	<path id="Path_433" class="st0" d="M166.4,1702.3h5.3v0.6c0,4.6,0,9.1,0,13.7c0,0.8,0.1,1.5,0.3,2.3c0.2,1.1,1.1,1.9,2.2,2
		c1,0.1,1.9,0.2,2.9,0c1.6-0.2,2.5-1.3,2.7-3.2c0-0.4,0.1-0.9,0.1-1.3c0-4.5,0-9,0-13.5v-0.6h5.3c0,0.2,0,0.4,0,0.6
		c0,5.2,0,10.5,0,15.7c0.1,3.6-2.4,6.8-6,7.4c-2.5,0.4-5,0.4-7.5-0.1c-3.2-0.7-5.5-3.6-5.4-6.9c-0.1-5.4,0-10.9,0-16.3
		C166.4,1702.5,166.4,1702.4,166.4,1702.3"/>
	<g id="Group_668" transform="translate(137.349 1702.268)">
		<path id="Path_422" class="st1" d="M0,0c1.3,0,2.6,0,3.9,0C4.5-0.1,5,0.2,5.2,0.7c4.5,7.4,9,14.8,13.5,22.2
			c0.1,0.1,0.1,0.3,0.2,0.4c-0.1,0-0.2,0-0.3,0c-1.5,0-3,0-4.4,0c-0.3,0-0.6-0.1-0.7-0.4C10.6,18.3,7.7,13.7,4.9,9
			C4.8,8.9,4.8,8.9,4.6,8.6v14.7H0L0,0z"/>
		<path id="Path_423" class="st0" d="M21.1,0h4.6v23.3c-0.1,0-0.2,0-0.4,0c-1.3,0-2.6,0-3.9,0c-0.3,0-0.5-0.1-0.6-0.4
			C16.5,15.8,12,8.6,7.6,1.4C7.4,0.9,7.1,0.5,6.8,0c0.1,0,0.2,0,0.3,0c1.5,0,3,0,4.5,0c0.3,0,0.6,0.1,0.7,0.4
			C15.2,5,18,9.5,20.9,14.1c0.1,0.1,0.1,0.2,0.3,0.4L21.1,0z"/>
	</g>
	<g id="Group_669" transform="translate(186.435 1695.476)">
		<path id="Path_424" class="st0" d="M0.9,34.9c0.2,0,0.4,0,0.6-0.1c0.4,0,0.9-0.1,1.3-0.2c4-0.6,6.8-4.1,6.5-8.1
			c-0.1-4.6,0-9.1,0-13.7c0-0.5,0.1-0.9,0.5-1.2l2.3-1.8c-0.1-0.1-0.2-0.2-0.3-0.3L0,18.8c0.1,0.1,0.1,0.1,0.2,0.3
			c1.1-0.8,2.2-1.7,3.4-2.6c0,0.4,0,0.7,0,0.8c0,3.8,0,7.7,0,11.5c0,1.1-0.2,2.2-0.5,3.2c0,0.1-0.1,0.2-0.1,0.3
			c-0.1,0.3-0.2,0.6-0.4,0.8c-0.2,0.2-0.4,0.5-0.6,0.7c-0.2,0.2-0.5,0.4-0.8,0.5c-0.1,0.1-0.3,0.1-0.5,0.2c-0.2,0-0.3,0.1-0.4,0.2
			c0,0,0,0-0.1,0c0,0,0,0,0,0c0,0,0,0,0,0c0,0,0,0,0,0l0,0c0,0,0,0,0,0h0h0h0h0h0.1h0.1h0.1L0.9,34.9L0.9,34.9"/>
		<path id="Path_425" class="st0" d="M16.6,3.1c-0.3-1.3-1.2-2.3-2.4-2.7c-1.7-0.6-3.6,0.4-4.2,2.1c0,0.1,0,0.1-0.1,0.2
			C9.6,3.9,9.4,5.2,9.4,6.5c0,1.1,0,2.2,0,3.4C9.5,10.3,9.3,10.8,9,11c-1.7,1.3-3.3,2.5-5,3.8c-0.1,0.1-0.2,0.2-0.3,0.3
			c0-0.2,0-0.4,0-0.5c0-2.2,0-4.4,0-6.6C3.5,4.8,5.5,1.9,8.5,0.8c1.6-0.7,3.4-0.9,5.2-0.7c2.3,0.4,3.9,2.5,3.4,5.3
			c-0.2,1.1-1.2,1.9-2.3,1.9c-1.1,0-2.1-0.7-2.5-1.7c-0.3-1.1,0.1-2.3,1-3c0.9-0.6,2.1-0.6,2.9,0.1C16.3,2.8,16.5,3,16.6,3.1"/>
	</g>
	<g id="Group_670" transform="translate(201.689 1695.476)">
		<path id="Path_426" class="st0" d="M0.9,34.9c0.2,0,0.4,0,0.6-0.1c0.4,0,0.9-0.1,1.3-0.2c4-0.6,6.8-4.1,6.5-8.1
			c-0.1-4.6,0-9.1,0-13.7c0-0.5,0.1-0.9,0.5-1.2l2.3-1.8c-0.1-0.1-0.2-0.2-0.3-0.3L0,18.8c0.1,0.1,0.1,0.1,0.2,0.3
			c1.1-0.8,2.2-1.7,3.4-2.6c0,0.4,0,0.7,0,0.8c0,3.8,0,7.7,0,11.5c0,1.1-0.2,2.2-0.5,3.2c0,0.1-0.1,0.2-0.1,0.3
			c-0.1,0.3-0.2,0.6-0.4,0.8c-0.2,0.2-0.4,0.5-0.6,0.7c-0.2,0.2-0.5,0.4-0.8,0.5c-0.1,0.1-0.3,0.1-0.5,0.2c-0.2,0-0.3,0.1-0.4,0.2
			c0,0,0,0-0.1,0c0,0,0,0,0,0c0,0,0,0,0,0v0l0,0c0,0,0,0,0,0h0h0h0h0h0.1h0.1h0.1L0.9,34.9L0.9,34.9"/>
		<path id="Path_427" class="st0" d="M16.6,3.1c-0.3-1.3-1.2-2.3-2.4-2.7c-1.7-0.6-3.6,0.4-4.2,2.1c0,0.1,0,0.1-0.1,0.2
			C9.6,3.9,9.4,5.2,9.4,6.5c0,1.1,0,2.2,0,3.4C9.5,10.3,9.3,10.8,9,11c-1.7,1.3-3.3,2.5-5,3.8c-0.1,0.1-0.2,0.2-0.3,0.3
			c0-0.2,0-0.4,0-0.5c0-2.2,0-4.4,0-6.6C3.5,4.8,5.5,1.9,8.5,0.8c1.6-0.7,3.4-0.9,5.2-0.7c2.3,0.4,3.9,2.5,3.4,5.3
			c-0.2,1.1-1.2,1.9-2.3,1.9c-1.1,0-2.1-0.7-2.5-1.7c-0.3-1.1,0.1-2.3,1-3c0.9-0.6,2.1-0.6,2.9,0.1C16.3,2.8,16.5,3,16.6,3.1"/>
	</g>
	<path id="Path_434" class="st0" d="M122.9,1715.4h-1.9v9.7c0,0.2-0.2,0.4-0.4,0.4c0,0,0,0,0,0H116V1692h4.6c0.3,0,0.5,0.2,0.5,0.5
		v18.7h1.7l6.1-8.9h6l-7.8,10.7l8.6,12.5h-5.9L122.9,1715.4z"/>
</g>
</svg>
