<?xml version="1.0" encoding="utf-8"?>
<!-- Generator: Adobe Illustrator 26.0.1, SVG Export Plug-In . SVG Version: 6.00 Build 0)  -->
<svg version="1.1" id="Layer_1" xmlns="http://www.w3.org/2000/svg" xmlns:xlink="http://www.w3.org/1999/xlink" x="0px" y="0px"
	 viewBox="0 0 36.3 33" style="enable-background:new 0 0 36.3 33;" xml:space="preserve">
<style type="text/css">
	.st0{opacity:0.998;fill:#F7BA63;enable-background:new    ;}
	.st1{opacity:0.998;fill:#FFFFFF;enable-background:new    ;}
</style>
<g id="Group_691" transform="translate(-37 -15)">
	<g id="Group_672" transform="translate(37 15)">
		<g id="Group_671" transform="translate(0 0)">
			<path id="Path_429" class="st0" d="M0,0c1.9,0,3.7,0.1,5.5,0c0.8-0.1,1.5,0.3,1.9,1c6.3,10.4,12.7,20.9,19,31.3
				c0.1,0.2,0.2,0.4,0.3,0.6c-0.1,0-0.3,0.1-0.4,0.1c-2.1,0-4.2,0-6.3,0c-0.4,0-0.9-0.2-1-0.6c-4-6.5-8.1-13.1-12.1-19.6
				c-0.1-0.1-0.2-0.3-0.4-0.6v20.7H0L0,0z"/>
		</g>
	</g>
	<path id="Path_443" class="st1" d="M66.8,15.1h6.5v32.9c-0.2,0-0.3,0-0.5,0.1c-1.8,0-3.6,0-5.4,0c-0.4,0-0.7-0.2-0.9-0.5
		C60.2,37.3,54,27.1,47.8,16.9c-0.4-0.6-0.7-1.2-1.1-1.9c0.1,0,0.3,0,0.5-0.1c2.1,0,4.3,0,6.4,0c0.4,0,0.8,0.2,1,0.6
		c4,6.4,8,12.9,11.9,19.3c0.1,0.2,0.2,0.3,0.4,0.6L66.8,15.1z"/>
</g>
</svg>
