<?xml version="1.0" encoding="utf-8"?>
<!-- Generator: Adobe Illustrator 26.0.1, SVG Export Plug-In . SVG Version: 6.00 Build 0)  -->
<svg version="1.1" id="Layer_1" xmlns="http://www.w3.org/2000/svg" xmlns:xlink="http://www.w3.org/1999/xlink" x="0px" y="0px"
	 viewBox="0 0 22.8 12.6" style="enable-background:new 0 0 22.8 12.6;" xml:space="preserve">
<style type="text/css">
	.st0{fill:#F7BA63;}
</style>
<path id="Path_5" class="st0" d="M0,6.2C0.1,6,0.2,5.9,0.3,5.8C2.1,4,4,2.1,5.8,0.3c0.4-0.4,0.6-0.4,0.9,0s0.7,0.7,1,1
	C8,1.5,8.1,1.8,8,2c0,0.1-0.1,0.1-0.2,0.2C6.5,3.5,5.2,4.8,3.9,6.1C3.8,6.2,3.8,6.2,3.7,6.3c0.1,0.1,0.1,0.1,0.2,0.2l3.9,3.9
	c0.4,0.4,0.4,0.6,0,1c-0.4,0.4-0.7,0.7-1.1,1.1c-0.2,0.2-0.5,0.3-0.7,0.1c0,0-0.1-0.1-0.1-0.1C4,10.5,2.1,8.6,0.2,6.7
	C0.1,6.6,0.1,6.5,0,6.4L0,6.2z"/>
<path id="Path_6" class="st0" d="M19.1,6.3c-0.1-0.1-0.1-0.1-0.2-0.2L15,2.2c-0.4-0.4-0.4-0.6,0-1c0.3-0.3,0.7-0.7,1-1
	c0.2-0.2,0.5-0.3,0.7-0.1c0,0,0.1,0.1,0.1,0.1c1.9,1.9,3.8,3.8,5.7,5.7c0.2,0.2,0.3,0.5,0.1,0.7c0,0.1-0.1,0.1-0.1,0.1
	c-1.9,1.9-3.8,3.8-5.7,5.7c-0.2,0.2-0.5,0.3-0.7,0.1c0,0-0.1-0.1-0.1-0.1c-0.4-0.4-0.7-0.7-1.1-1.1c-0.2-0.2-0.3-0.5-0.1-0.7
	c0-0.1,0.1-0.1,0.2-0.2c1.3-1.3,2.6-2.6,3.9-3.9C18.9,6.4,19,6.4,19.1,6.3"/>
</svg>
