<?xml version="1.0" encoding="utf-8"?>
<!-- Generator: Adobe Illustrator 26.0.1, SVG Export Plug-In . SVG Version: 6.00 Build 0)  -->
<svg version="1.1" id="Layer_1" xmlns="http://www.w3.org/2000/svg" xmlns:xlink="http://www.w3.org/1999/xlink" x="0px" y="0px"
	 viewBox="0 0 30.3 119.8" style="enable-background:new 0 0 30.3 119.8;" xml:space="preserve">
<style type="text/css">
	.st0{fill:#FFFFFF;}
</style>
<g>
	<path class="st0" d="M15.1,119.8c-2.6,0-4.8-2.1-4.8-4.8s2.1-4.8,4.8-4.8c2.6,0,4.8,2.1,4.8,4.8S17.8,119.8,15.1,119.8z
		 M15.1,111.8c-1.8,0-3.3,1.5-3.3,3.3s1.5,3.3,3.3,3.3s3.3-1.5,3.3-3.3S16.9,111.8,15.1,111.8z"/>
	<rect x="14.4" class="st0" width="1.5" height="43.1"/>
	<rect x="14.4" y="85" class="st0" width="1.5" height="26.1"/>
	<rect x="14.4" y="42.3" class="st0" width="15.9" height="1.5"/>
	<rect x="28.7" y="43.1" class="st0" width="1.5" height="26.5"/>
	<rect y="68.3" class="st0" width="30.3" height="1.5"/>
	<rect x="0" y="68.6" class="st0" width="1.5" height="17"/>
	<rect y="84.3" class="st0" width="15.9" height="1.5"/>
</g>
</svg>
